<?xml version="1.0" encoding="UTF-8"?>
<svg version="1.1" xmlns="http://www.w3.org/2000/svg" width="1726" height="1338">
<path d="M0 0 C0.9714072 -0.00709439 1.94281439 -0.01418877 2.94365817 -0.02149814 C6.17190182 -0.03898455 9.39892651 -0.02102076 12.62715149 -0.00291443 C14.95222011 -0.00805669 17.27728482 -0.01534028 19.6023407 -0.02459717 C25.89761981 -0.04307679 32.1924742 -0.0301951 38.48773551 -0.01050687 C44.41257652 0.0042385 50.33737302 -0.00173325 56.26222501 -0.00656378 C67.99965919 -0.01511711 79.73692601 0.00150183 91.47431946 0.03126526 C102.85329715 0.06011924 114.23203395 0.06717511 125.61103821 0.05177307 C138.0188611 0.03500135 150.42656982 0.03098502 162.83439571 0.04848343 C169.3967087 0.05757961 175.95891549 0.06169104 182.5212307 0.05244255 C188.6880092 0.04478133 194.85444078 0.05690109 201.02116013 0.08429146 C203.28386086 0.09117709 205.54659398 0.09127139 207.80929375 0.08407593 C210.89831462 0.07538459 213.98626399 0.09133272 217.07519531 0.11352539 C217.97013897 0.10528462 218.86508263 0.09704386 219.78714579 0.08855337 C225.63663903 0.16610126 229.03178452 1.26296488 233.84712219 4.62818909 C239.69951508 10.79692754 240.25269002 16.4809455 240.12132263 24.71354675 C239.64885145 31.45881565 238.09438135 37.90621847 236.49946594 44.45240784 C236.13474355 46.00072602 235.77145741 47.5493831 235.4094696 49.0983429 C234.62799693 52.42924215 233.83695919 55.75766332 233.03819275 59.0844574 C231.76315888 64.39559725 230.50992726 69.7117361 229.25996399 75.02882385 C227.68416333 81.72556839 226.10318224 88.42105115 224.51598454 95.11510372 C219.78648479 115.06530828 215.14028681 135.03490946 210.49931812 155.00586414 C208.94480188 161.694315 207.38575136 168.38168614 205.82263565 175.0681324 C204.84622129 179.24710508 203.87247563 183.4266965 202.89935684 187.60643768 C202.4434099 189.56227475 201.98634195 191.51785086 201.52810287 193.47315216 C200.9013405 196.14840098 200.27863415 198.8245622 199.65693665 201.50099182 C199.47167892 202.28728312 199.28642118 203.07357443 199.09554958 203.88369274 C198.40599854 206.86756286 197.84712219 209.5542498 197.84712219 212.62818909 C198.91929993 212.17194153 199.99147766 211.71569397 201.09614563 211.24562073 C293.12245588 172.14686582 387.72402358 139.50186951 575.84712219 94.62818909 C576.66364258 94.46478027 577.48016296 94.30137146 578.32142639 94.13301086 C580.54620152 93.69112044 582.77231286 93.25713395 584.99946594 92.82740784 C586.822724 92.47488953 586.822724 92.47488953 588.68281555 92.11524963 C591.47411793 91.68560314 594.03123888 91.52633022 596.84712219 91.62818909 C597.07351379 90.45707581 597.2999054 89.28596252 597.53315735 88.07936096 C599.95184017 75.70298251 602.62264069 63.39857009 605.51899719 51.1252594 C605.99074784 49.11442227 606.45583873 47.10201196 606.914505 45.08815002 C613.91853293 14.34769929 613.91853293 14.34769929 627.10137111 5.03587949 C634.95418367 0.24185174 641.73594945 -0.21267367 650.76098633 -0.09333801 C652.24716518 -0.09595899 653.73334129 -0.10122079 655.21950275 -0.10887301 C659.27677419 -0.12221233 663.33308516 -0.098398 667.39023435 -0.06820464 C671.77521994 -0.04218884 676.16015543 -0.05106949 680.54519653 -0.05561829 C688.13369165 -0.0587578 695.72187619 -0.04000227 703.3102932 -0.00619125 C714.28168891 0.04266106 725.25293511 0.05820662 736.2244278 0.0657367 C754.02672281 0.07885438 771.82885246 0.11874574 789.63105774 0.17555237 C806.91978633 0.23066298 824.20846993 0.27311568 841.49726868 0.29859924 C843.09695036 0.30096375 843.09695036 0.30096375 844.72894885 0.30337603 C850.0792691 0.3112065 855.42958967 0.31878869 860.77991045 0.32624745 C905.1357622 0.38840392 949.49143365 0.49404446 993.84712219 0.62818909 C993.90135166 2.06526999 993.94001942 3.50294371 993.97212219 4.94068909 C993.99532532 5.7411969 994.01852844 6.54170471 994.04243469 7.36647034 C993.84712219 9.62818909 993.84712219 9.62818909 991.84712219 12.62818909 C989.61421204 13.46852112 989.61421204 13.46852112 986.80805969 14.13600159 C985.2429364 14.52525818 985.2429364 14.52525818 983.64619446 14.92237854 C981.95127869 15.33362976 981.95127869 15.33362976 980.22212219 15.75318909 C951.3774081 23.16948868 925.1989554 34.4797527 902.34712219 53.81568909 C901.77115295 54.30279358 901.19518372 54.78989807 900.60176086 55.29176331 C899.77962097 56.0055011 899.77962097 56.0055011 898.94087219 56.73365784 C898.22447571 57.35470398 898.22447571 57.35470398 897.49360657 57.98829651 C895.08806173 60.3842106 892.99692549 63.00077814 890.84712219 65.62818909 C891.57182709 65.66719833 892.29653198 65.70620758 893.04319763 65.74639893 C974.89692506 70.1789098 1055.93508906 78.38839205 1209.84712219 132.62818909 C1210.73786438 133.05309631 1211.62860657 133.47800354 1212.54634094 133.91578674 C1257.11016323 155.17798864 1301.62739096 186.03549309 1331.84712219 225.62818909 C1332.77509431 226.80429656 1333.70350939 227.9800546 1334.63227844 229.15553284 C1346.30131257 244.11505178 1355.85778233 260.43564663 1363.84712219 277.62818909 C1364.36661438 278.7380719 1364.88610657 279.84795471 1365.42134094 280.99147034 C1376.68853858 306.15783566 1384.09642379 333.98867215 1384.21821594 361.62428284 C1384.23175865 363.58749229 1384.23175865 363.58749229 1384.24557495 365.59036255 C1384.26193602 368.35275198 1384.26973839 371.11502237 1384.2726593 373.87745667 C1384.27691588 376.63957532 1384.29742932 379.4007379 1384.33418274 382.16261292 C1385.39576505 463.51819955 1347.75916463 540.97109405 1300.84712219 605.62818909 C1300.29266418 606.39663147 1299.73820618 607.16507385 1299.16694641 607.95680237 C1291.51703766 618.54317059 1283.60137718 628.84527327 1275.27095032 638.90455627 C1273.25871746 641.34048973 1271.2740447 643.79861384 1269.28462219 646.25318909 C1261.14094905 656.18014832 1252.75737098 665.8626094 1243.99336243 675.24635315 C1241.611683 677.79957668 1239.25553398 680.37471498 1236.90577698 682.9573822 C1229.58838869 690.96960194 1221.96505152 698.66310044 1214.28218079 706.32350159 C1212.08260148 708.51767411 1209.88848212 710.71720632 1207.69477844 712.91725159 C1206.27192219 714.33944764 1204.8487561 715.76133379 1203.42524719 717.18287659 C1202.78234741 717.8278006 1202.13944763 718.47272461 1201.47706604 719.13719177 C1197.67278799 722.92217035 1193.75975281 726.52575642 1189.68966675 730.02375793 C1186.55098235 732.75682781 1183.55470047 735.6406242 1180.53462219 738.50318909 C1175.33608789 743.39668757 1170.02721866 748.03929029 1164.44477844 752.49537659 C1161.71157333 754.73948184 1159.12575627 757.09686661 1156.53462219 759.50318909 C1151.92440862 763.74615948 1147.12785261 767.62695572 1142.17549133 771.45411682 C1138.17671137 774.55329352 1134.30283962 777.76191733 1130.47212219 781.06568909 C1124.60542316 786.09632557 1118.49003644 790.73032682 1112.28071594 795.32740784 C1108.18677293 798.36095554 1104.14367756 801.45789747 1100.10273743 804.5615387 C1090.89948719 811.62395491 1081.58836075 818.47506956 1072.05854797 825.08912659 C1069.65762341 826.76007254 1067.26549173 828.44311148 1064.87446594 830.12818909 C1059.87830176 833.64694189 1054.86752407 837.14411886 1049.84712219 840.62818909 C1049.09994934 841.14816467 1048.35277649 841.66814026 1047.58296204 842.20387268 C1045.53167722 843.62591766 1043.47253866 845.03558905 1041.40962219 846.44068909 C1040.81326965 846.85528381 1040.21691711 847.26987854 1039.60249329 847.69703674 C1036.38275072 849.86680255 1033.72389621 851.18616439 1029.84712219 851.62818909 C1033.17853962 846.95039571 1037.16213864 843.88099233 1041.72212219 840.50318909 C1043.25650754 839.34764407 1044.79035405 838.19138326 1046.32368469 837.03443909 C1047.08713196 836.46080627 1047.85057922 835.88717346 1048.63716125 835.29615784 C1057.57216555 828.55246038 1066.24403293 821.52421441 1074.75337219 814.25318909 C1077.6426354 811.78902945 1080.58230677 809.39157909 1083.53462219 807.00318909 C1087.98616028 803.37984414 1092.27094674 799.60855036 1096.51509094 795.74537659 C1098.60536108 793.8476774 1100.71698334 791.98085494 1102.84712219 790.12818909 C1107.56309236 786.0158631 1112.21033752 781.82943762 1116.84712219 777.62818909 C1117.82165344 776.7477594 1118.79618469 775.86732971 1119.80024719 774.96022034 C1125.54156924 769.75091269 1131.09762843 764.4159539 1136.54634094 758.89772034 C1138.60754283 756.8645144 1140.71318876 754.95020298 1142.90962219 753.06568909 C1149.45628238 747.44295272 1155.35869484 741.27245581 1160.96821594 734.72584534 C1163.17339516 732.26393008 1165.49598896 729.95095268 1167.84712219 727.62818909 C1171.39630376 724.11642359 1174.76680677 720.53810008 1178.01118469 716.74537659 C1180.19918389 714.22219454 1182.46005332 711.77264389 1184.72212219 709.31568909 C1189.17400874 704.4293091 1193.38015349 699.39283366 1197.52778625 694.24781799 C1199.00177082 692.43834101 1200.49702474 690.64785304 1201.99555969 688.85865784 C1215.45863556 672.74836956 1227.93439884 655.91214034 1239.84712219 638.62818909 C1240.48593323 637.70393127 1240.48593323 637.70393127 1241.13764954 636.76100159 C1252.41910601 620.3644052 1262.37781491 603.12224773 1271.84712219 585.62818909 C1272.45394836 584.51806458 1273.06077454 583.40794006 1273.68598938 582.26417542 C1278.36644402 573.64899806 1282.66636097 564.92459938 1286.59712219 555.94068909 C1287.03834412 554.93446503 1287.03834412 554.93446503 1287.48847961 553.90791321 C1317.25211214 485.56437795 1328.93951935 406.98187143 1302.30024719 335.68678284 C1292.76440335 311.48009971 1280.23559152 288.86154057 1263.84712219 268.62818909 C1263.14458313 267.73357971 1262.44204407 266.83897034 1261.71821594 265.91725159 C1247.7755981 248.40552899 1231.67578559 232.54169115 1213.7870636 219.08815002 C1212.42841331 218.06565711 1211.07428355 217.03714256 1209.72358704 216.00416565 C1139.41312664 162.2634911 1051.63503859 135.53013003 877.17134094 109.98756409 C873.68658786 109.72693781 870.28422959 109.27860419 866.84712219 108.62818909 C866.73085983 109.7313446 866.61459747 110.83450012 866.49481201 111.97108459 C865.84783327 117.11565867 864.68103143 122.10139728 863.48408508 127.14186096 C863.12144515 128.69131912 863.12144515 128.69131912 862.75147915 130.27207947 C861.94478486 133.71462092 861.13224472 137.1557557 860.31977844 140.59693909 C859.74138416 143.06059236 859.16339087 145.5243398 858.58576965 147.98817444 C857.34629741 153.27203326 856.10447124 158.55532981 854.86058044 163.83815002 C852.89750971 172.17590964 850.94082094 180.51515988 848.98554993 188.85475159 C848.65376595 190.26978563 848.3219817 191.6848196 847.99019718 193.09985352 C847.48913282 195.23688555 846.98807979 197.37392025 846.48705894 199.51096249 C845.47195296 203.84066851 844.45644046 208.17027894 843.44059759 212.49981213 C836.95856072 240.12651633 830.510651 267.761056 824.08903503 295.40187073 C822.98010334 300.17480219 821.86984126 304.9474208 820.75828552 309.71974182 C817.62517519 323.17320436 814.50790205 336.63009996 811.42742157 350.09571838 C810.87865997 352.49055582 810.3267941 354.88465582 809.77406311 357.27857971 C808.87409877 361.18314326 807.99656755 365.09230853 807.12446594 369.00318909 C806.88232864 370.04749084 806.64019135 371.0917926 806.39071655 372.16773987 C804.48153541 380.91547675 802.77231158 390.85248946 807.50727844 398.94068909 C810.7851558 403.06909439 814.70997657 405.57054874 819.84712219 406.62818909 C821.4575999 406.71716914 823.07131049 406.75474469 824.68424416 406.75568104 C826.14996611 406.76019251 826.14996611 406.76019251 827.6452986 406.76479512 C828.71629156 406.76304475 829.78728452 406.76129438 830.89073181 406.75949097 C832.03048851 406.76160668 833.17024522 406.76372239 834.34454 406.76590222 C838.17825534 406.77191187 842.01193786 406.77090137 845.84565735 406.77003479 C848.58860942 406.77249318 851.33155854 406.77651254 854.07450867 406.78056335 C859.98942177 406.78867605 865.90433056 406.79362015 871.8192482 406.79685402 C881.17290815 406.8023534 890.52653168 406.8192543 899.88017273 406.8381958 C903.08119386 406.84455262 906.28221509 406.85086106 909.48323631 406.85717297 C910.68323511 406.85954861 910.68323511 406.85954861 911.90747631 406.86197225 C921.01447154 406.87990955 930.12146934 406.89613496 939.22846985 406.91114807 C940.06095687 406.91252394 940.8934439 406.91389981 941.75115781 406.91531738 C955.23332028 406.93723423 968.71547337 406.94800044 982.19765051 406.95551882 C996.04503945 406.96359667 1009.89234807 406.98690941 1023.73969114 407.02347249 C1032.27720521 407.0454709 1040.81455397 407.0551703 1049.35209493 407.04897215 C1055.20735904 407.04579167 1061.06248225 407.05716643 1066.91770275 407.07986657 C1070.29323834 407.09250382 1073.6681984 407.09655267 1077.0437851 407.08745003 C1080.71004448 407.0785631 1084.37542278 407.09425505 1088.04161072 407.11593628 C1089.09921935 407.10749374 1090.15682798 407.0990512 1091.24648535 407.09035283 C1098.65571694 407.17118384 1106.24650568 408.14528867 1111.79099715 413.50851232 C1115.83856731 418.37164843 1118.01880842 423.53789135 1117.75179672 429.89924812 C1117.16623736 435.61687507 1116.22343955 441.11969659 1114.89888 446.70973206 C1114.60179862 447.99740683 1114.60179862 447.99740683 1114.29871559 449.31109524 C1113.63852594 452.16561004 1112.96941748 455.01795486 1112.30024719 457.87037659 C1111.82064787 459.93529295 1111.34158787 462.00033464 1110.86302185 464.06549072 C1109.55651763 469.69601106 1108.2421114 475.32466058 1106.92627716 480.95300674 C1105.52253232 486.96340328 1104.12604112 492.97548553 1102.72846985 498.98731995 C1099.41900745 513.21564506 1096.09750072 527.4411441 1092.77307129 541.66597748 C1091.85372972 545.59976185 1090.9346922 549.53361722 1090.01570129 553.46748352 C1084.68414103 576.28931401 1079.34847031 599.11018272 1074.00597417 621.92945576 C1066.81197238 652.65708956 1059.63226788 683.38795986 1052.49187756 714.12810135 C1051.04022943 720.3775375 1049.58699906 726.6266023 1048.13224697 732.87531662 C1042.197021 758.37021281 1042.197021 758.37021281 1036.41370964 783.89986801 C1035.71056409 787.04375491 1035.00212517 790.18645007 1034.29463196 793.32936096 C1033.33482339 797.59397135 1032.39418463 801.86203253 1031.4679718 806.13404846 C1027.89080227 822.27319961 1023.28630981 834.81983274 1008.76118469 844.11256409 C1002.29951669 847.47332439 996.49007903 847.9222419 989.34094238 847.90234375 C988.40280002 847.90758043 987.46465767 847.91281711 986.49808675 847.91821247 C983.36463251 847.93317564 980.23134209 847.93391682 977.09785461 847.93458557 C974.84706345 847.94220947 972.59627489 847.95063736 970.3454895 847.95980835 C964.2379843 847.98173608 958.13052915 847.99054983 952.02298903 847.99563479 C948.20548838 847.99928007 944.38800081 848.005521 940.57050514 848.01263618 C929.98883766 848.03208523 919.40718104 848.0486029 908.82549572 848.05151272 C908.1492066 848.05170029 907.47291748 848.05188786 906.77613475 848.05208111 C905.40530702 848.05244735 904.03447928 848.05281105 902.66365155 848.05317222 C901.98322762 848.05335503 901.3028037 848.05353785 900.60176086 848.0537262 C899.57987119 848.05399702 899.57987119 848.05399702 898.53733728 848.05427331 C887.49962318 848.05781466 876.4621042 848.08483879 865.42445775 848.12222409 C854.07658619 848.16035089 842.7288429 848.17922987 831.38089448 848.17997223 C825.01566891 848.18076483 818.6506953 848.18949663 812.28552818 848.21796989 C806.29770137 848.24415698 800.31033532 848.24635168 794.32247734 848.23031425 C792.12874598 848.22850038 789.93498808 848.23518485 787.74131393 848.25113297 C765.75964831 848.40115955 765.75964831 848.40115955 758.84712219 842.62818909 C753.17747034 836.54062061 752.46442609 830.94266134 752.53642273 822.91096497 C752.97494101 814.42669786 755.37031294 806.15407786 757.36665344 797.93287659 C757.85404888 795.874444 758.33998966 793.81566654 758.82460022 791.75657654 C759.86949112 787.32972558 760.92395724 782.90530982 761.98606873 778.4825592 C763.69301993 771.37366741 765.37817501 764.25971735 767.05976868 757.14479065 C768.83466311 749.63921002 770.61086542 742.13395329 772.39425659 734.63038635 C776.53161271 717.22045403 780.62330229 699.8003816 784.67524719 682.37037659 C784.95373505 681.17242714 785.2322229 679.97447769 785.51914978 678.74022675 C786.92332568 672.69851502 788.32652905 666.65657797 789.72920227 660.61451721 C792.25022761 649.75611076 794.77737634 638.89912894 797.30409241 628.04204559 C798.14196298 624.44161782 798.97967126 620.84115231 799.81733704 617.24067688 C803.76639151 600.26744991 807.71970966 583.2952188 811.67524719 566.32350159 C812.0895036 564.54603043 812.0895036 564.54603043 812.51212883 562.73265076 C814.90217311 552.47765407 817.292352 542.22268878 819.68333435 531.96791077 C819.92896213 530.91436653 820.1745899 529.8608223 820.42766094 528.77535248 C820.91157582 526.69990861 821.39557359 524.62448407 821.8796587 522.5490799 C823.01559716 517.67804063 824.14975701 512.80660338 825.27938843 507.93409729 C828.72277541 493.09031324 828.72277541 493.09031324 830.37235355 486.35182762 C830.82381515 484.50705908 831.26968353 482.66092449 831.71533203 480.81474304 C832.21846575 478.73633705 832.73153764 476.6602867 833.25881958 474.58787537 C835.35163905 465.87301418 836.80017738 456.28519821 832.04634094 448.24537659 C828.76150486 443.81566278 825.08129505 441.97985237 819.84712219 440.62818909 C816.08311349 440.3375311 812.32996401 440.35580832 808.55627441 440.36990356 C806.84301774 440.36439001 806.84301774 440.36439001 805.09514982 440.35876507 C801.26527691 440.34877949 797.43554903 440.35293707 793.60566711 440.35694885 C790.86079428 440.35368394 788.11593066 440.34737057 785.37106323 440.34111023 C779.45836067 440.32907366 773.54568505 440.32395773 767.63297081 440.32322884 C759.07440831 440.32190203 750.51591107 440.30677995 741.95737163 440.28773367 C728.05824383 440.2568994 714.15911437 440.23273105 700.25996399 440.21485901 C699.01253649 440.21324999 699.01253649 440.21324999 697.73990843 440.21160846 C688.46418541 440.19979127 679.18846172 440.18958538 669.91273499 440.1811676 C666.55028787 440.17809371 663.18784076 440.17500491 659.82539368 440.17189026 C658.99569988 440.17112492 658.16600609 440.17035958 657.31117006 440.16957105 C643.46712733 440.15648069 629.62313183 440.13182897 615.77912408 440.09814686 C607.24456578 440.07787858 598.71010855 440.06756447 590.175526 440.07013606 C584.32498606 440.07117269 578.47452594 440.06150936 572.62401386 440.04349703 C569.25069069 440.0334723 565.87769197 440.02994594 562.50433731 440.03626442 C558.84235162 440.04240415 555.18086333 440.03017604 551.5189209 440.01345825 C550.45976367 440.01967007 549.40060644 440.02588188 548.30935353 440.03228194 C541.17554476 439.97300131 534.25165487 439.3449948 528.50727844 434.76100159 C527.98005188 434.09842346 527.45282532 433.43584534 526.90962219 432.75318909 C526.09171204 431.76705627 526.09171204 431.76705627 525.25727844 430.76100159 C520.49823519 423.56311346 521.00839556 415.73930271 522.56236267 407.52857971 C523.58047633 402.62064955 524.75654567 397.7510159 525.92915344 392.87818909 C526.3717137 390.99519802 526.81304836 389.11191855 527.25326538 387.2283783 C528.20546673 383.16551414 529.16593729 379.10472855 530.13294983 375.04536438 C531.68833363 368.51565718 533.22539228 361.98171902 534.75971985 355.44703674 C536.67833085 347.28076362 538.60126271 339.11553065 540.5293045 330.95147896 C544.31425524 314.92141226 548.05942638 298.88226925 551.78852844 282.83912659 C552.07553368 281.6045232 552.36253891 280.36991982 552.65824127 279.09790421 C554.10456985 272.87573433 555.55039631 266.65344793 556.99598694 260.43110657 C559.83202743 248.22511561 562.67360196 236.02041258 565.51509094 223.81568909 C565.92311321 222.06292223 565.92311321 222.06292223 566.33937836 220.27474594 C569.78509563 205.47304045 573.23611578 190.67258573 576.69398499 175.87371445 C577.91490324 170.64770014 579.1348251 165.42145311 580.35478592 160.19521523 C581.45446107 155.4850699 582.55610952 150.77539201 583.65935612 146.066082 C584.3160268 143.26113886 584.97094385 140.45578857 585.62534142 137.65031433 C586.06348927 135.7744992 586.50389051 133.89921086 586.94436646 132.02394104 C587.19868942 130.93218567 587.45301239 129.8404303 587.71504211 128.71559143 C587.93560776 127.77307526 588.1561734 126.83055908 588.38342285 125.85948181 C588.91494526 123.68165624 588.91494526 123.68165624 588.84712219 121.62818909 C483.59888621 137.61588071 380.34998388 162.16685756 203.87111187 222.89210987 C201.84712219 223.62818909 201.84712219 223.62818909 199.84193611 224.06013107 C197.51988902 224.64235033 195.83618252 225.28239292 193.84712219 226.62818909 C192.00757608 229.9095727 191.34845538 233.36847152 190.58735657 237.03004456 C190.20986015 238.63867371 190.20986015 238.63867371 189.82473755 240.27980042 C188.99689364 243.844937 188.21899231 247.41908663 187.44087219 250.99537659 C186.86908735 253.50387646 186.29428745 256.01169079 185.71662903 258.5188446 C184.35126094 264.47922722 183.01729133 270.44585857 181.69797468 276.41657841 C180.22769928 283.0621055 178.7170736 289.69821769 177.20300293 296.33387899 C173.93685187 310.65569101 170.73953409 324.99228744 167.5738678 339.33660889 C166.8834516 342.46364574 166.19102737 345.59023079 165.4980011 348.71669006 C164.51947967 353.13462172 163.54658443 357.55374373 162.57995605 361.97429276 C162.24384789 363.51020612 161.90650702 365.04585037 161.56777954 366.5811882 C157.34742898 383.36014393 157.34742898 383.36014393 161.88227844 399.42115784 C164.98507471 403.68092898 168.89537215 405.38210126 173.84712219 406.62818909 C177.6828829 407.0379069 181.48570792 407.03189148 185.34051514 407.00672913 C186.48031155 407.01125926 187.62010797 407.01578938 188.79444367 407.02045679 C192.60435649 407.03206129 196.41391692 407.0224413 200.22383118 407.01295471 C202.95915018 407.01538246 205.69445281 407.02236755 208.42976379 407.02923584 C214.31570955 407.04178247 220.20158184 407.04378204 226.08753777 407.03887939 C234.60735312 407.03206099 243.12705808 407.0446071 251.64685369 407.06238657 C265.48386869 407.09101607 279.32087175 407.1085438 293.15791321 407.11695862 C294.39915828 407.11771939 294.39915828 407.11771939 295.66547901 407.11849552 C301.53852659 407.1220224 307.41157435 407.1251518 313.28462219 407.12818909 C319.991735 407.13165798 326.69884764 407.13530721 333.40596008 407.13941956 C334.64523211 407.14017348 334.64523211 407.14017348 335.90953993 407.14094263 C349.6948808 407.14969252 363.48018065 407.17013992 377.26549393 407.19890165 C385.7618063 407.21606144 394.25800251 407.22267554 402.75432993 407.2155956 C408.57727906 407.21141041 414.40015502 407.21778492 420.22308712 407.23239434 C423.58022782 407.24043689 426.93703635 407.24193817 430.29419899 407.23357201 C433.93855376 407.22518806 437.5824202 407.23518445 441.22674561 407.24964905 C442.80759867 407.23930815 442.80759867 407.23930815 444.42038816 407.22875834 C451.75489716 407.2854059 458.63876821 407.96100324 464.44087219 412.78443909 C465.06993469 413.55787659 465.69899719 414.33131409 466.34712219 415.12818909 C466.99680969 415.90162659 467.64649719 416.67506409 468.31587219 417.47193909 C472.54365831 423.42535219 471.56227437 431.88237407 470.51749802 438.81560516 C469.41185546 444.74189904 467.96657838 450.5914588 466.54634094 456.44850159 C466.08142199 458.41707342 465.61794803 460.38598699 465.15579224 462.35520935 C464.15804752 466.59356633 463.15070012 470.82947932 462.13569641 475.06373596 C460.50045215 481.88624339 458.88696166 488.71378496 457.27680969 495.54225159 C455.56865581 502.78178961 453.85895412 510.02094613 452.14189148 517.25837708 C448.08247519 534.36968834 444.06656636 551.49069351 440.08540344 568.62037659 C439.80783644 569.8146011 439.53026943 571.00882561 439.24429131 572.23923874 C437.84052773 578.27997669 436.43753857 584.32089417 435.03489685 590.3618927 C432.49340964 601.30614476 429.94527879 612.24885064 427.39759636 623.19166183 C426.27170768 628.02773581 425.1460722 632.8638687 424.02042484 637.69999886 C420.72503794 651.85781846 417.42907098 666.01550302 414.13240623 680.17302513 C413.59998526 682.4595303 413.06758691 684.74604074 412.53521156 687.03255653 C409.72791277 699.08951504 406.91869273 711.14601918 404.10371399 723.20118713 C403.14178502 727.32136323 402.17997299 731.44156661 401.21821594 735.56178284 C400.98615133 736.55578787 400.75408672 737.5497929 400.51498985 738.5739193 C397.5634492 751.21958579 394.63767943 763.87081361 391.74106979 776.52917099 C390.6978167 781.08223091 389.6481853 785.63382425 388.59798241 790.18528557 C387.81116529 793.59817094 387.02890804 797.01194672 386.25862122 800.42860413 C385.44131147 804.04600153 384.60889434 807.65960252 383.77290344 811.27272034 C383.43392784 812.80389244 383.43392784 812.80389244 383.08810425 814.36599731 C380.46041305 825.56510648 375.92506182 834.36870109 366.84712219 841.62818909 C360.21339262 845.70375022 354.57688537 847.75397311 346.79514694 847.75123692 C345.54709392 847.75322796 344.2990409 847.75521901 343.0131681 847.7572704 C341.62576768 847.75441735 340.23836745 847.75147175 338.85096741 847.7484436 C337.37908607 847.74887956 335.9072048 847.74975491 334.43532395 847.75103277 C330.38539119 847.753273 326.33548477 847.74926286 322.28555536 847.74425471 C317.92021338 847.73994366 313.55487293 847.7413971 309.18952942 847.74215698 C301.6245005 847.7426818 294.05948019 847.73953938 286.49445343 847.73391914 C275.55664093 847.72579846 264.61883261 847.72318834 253.68101743 847.72193115 C235.93592759 847.71974153 218.19084235 847.71308387 200.445755 847.70362854 C183.20617191 847.69445211 165.96659005 847.6873724 148.727005 847.68312073 C147.66468547 847.682858 146.60236594 847.68259528 145.50785491 847.6823246 C140.17860809 847.68101958 134.84936126 847.67975586 129.52011442 847.67851269 C85.29578047 847.66814287 41.07145164 847.65045274 -3.15287781 847.62818909 C-3.15287781 843.66818909 -3.15287781 839.70818909 -3.15287781 835.62818909 C-1.29662781 835.11772034 -1.29662781 835.11772034 0.59712219 834.59693909 C44.52293617 822.37503779 89.55542332 806.01444223 114.02436829 764.63746643 C123.00627182 748.55651792 127.10861943 731.15977314 131.21430969 713.36256409 C131.72650718 711.16630059 132.2393313 708.97018315 132.75273132 706.77420044 C134.13074911 700.87201154 135.5000288 694.96782737 136.86764526 689.06322098 C138.30845793 682.84954752 139.75746171 676.63778446 141.20552063 670.42579651 C143.88876192 658.90939799 146.56485052 647.39135149 149.23753357 635.87249851 C151.18560157 627.4769106 153.13585929 619.08183549 155.08833313 610.68727112 C155.34741046 609.57335589 155.60648779 608.45944067 155.87341595 607.31177044 C156.6432714 604.00187274 157.41316489 600.69198389 158.18305969 597.38209534 C161.11077607 584.79502883 164.03653609 572.2075215 166.9523468 559.61769104 C167.87152372 555.64979559 168.79087146 551.68193977 169.71040344 547.71412659 C169.9317716 546.75887022 170.15313976 545.80361385 170.38121605 544.81941032 C173.17287075 532.77813866 175.993817 520.74434314 178.85707474 508.71989632 C179.38003162 506.5220286 179.90158289 504.3238329 180.42253113 502.12548828 C180.58787039 501.4278238 180.75320965 500.73015932 180.92355919 500.01135349 C181.24743887 498.64451936 181.57125341 497.2776698 181.89499855 495.91080379 C182.93228396 491.53618185 183.98525195 487.1655104 185.04145813 482.79542542 C185.55928699 480.61351457 186.07657887 478.43147618 186.59321594 476.24928284 C186.94285652 474.83028183 186.94285652 474.83028183 187.29956055 473.38261414 C189.06057011 465.85349199 190.48672028 457.52667482 186.97212219 450.31568909 C186.62407532 449.53580627 186.27602844 448.75592346 185.91743469 447.95240784 C181.56187015 443.06267029 176.16649172 440.69785691 169.65718269 440.14750862 C164.40172335 439.87707554 159.14544999 439.89409049 153.88447571 439.90187073 C151.86144978 439.88689302 149.83843809 439.86987582 147.81544495 439.85098267 C142.34225548 439.80696961 136.86945727 439.79510039 131.39610791 439.79190373 C127.97236364 439.78834152 124.54871783 439.77765191 121.12499809 439.76441765 C109.16894625 439.71821851 97.21317245 439.69773536 85.2570343 439.70167542 C74.12982536 439.70468047 63.0038275 439.65188453 51.87692505 439.5729571 C42.30629697 439.50749927 32.73606412 439.48075909 23.165214 439.48395246 C17.4563941 439.48522474 11.74865216 439.47111899 6.04005623 439.41806221 C0.67051919 439.36951383 -4.69691545 439.36935081 -10.06652832 439.40564537 C-12.03088021 439.41085693 -13.99536503 439.3991632 -15.95948982 439.36884308 C-28.89162964 439.10722828 -28.89162964 439.10722828 -39.66253662 445.48925781 C-41.18895547 447.17587797 -42.68942676 448.88665152 -44.15287781 450.62818909 C-45.44216531 451.80007987 -46.75019516 452.95236041 -48.09037781 454.06568909 C-52.98365397 458.32501854 -57.75260926 462.71876396 -62.51664734 467.12135315 C-64.09617191 468.57596754 -65.68431347 470.0206041 -67.27397156 471.46412659 C-76.31140586 479.72871919 -84.98646015 488.35366095 -93.65287781 497.00318909 C-94.26719666 497.61491974 -94.8815155 498.22665039 -95.51445007 498.85691833 C-104.35654916 507.66177042 -104.35654916 507.66177042 -112.7026825 516.93287659 C-115.05606902 519.68404091 -117.55138771 522.30079483 -120.02787781 524.94068909 C-124.56958343 529.81750258 -128.85303623 534.83773367 -133.02397156 540.03834534 C-135.07208202 542.5298999 -137.20791039 544.89091018 -139.40287781 547.25318909 C-145.19964042 553.62358967 -150.28738646 560.52503798 -155.46342468 567.39918518 C-157.09921242 569.5573849 -158.75429475 571.69888587 -160.41850281 573.83522034 C-178.59775952 597.21286116 -194.50271184 622.20277239 -208.77641296 648.13356018 C-209.94447626 650.25049362 -211.12824692 652.35707401 -212.32084656 654.46022034 C-251.07210359 724.372282 -268.09790778 807.66386875 -245.9995575 885.43214417 C-241.32898376 901.2106781 -234.89739436 916.12952198 -227.15287781 930.62818909 C-226.80112488 931.29302307 -226.44937195 931.95785706 -226.08695984 932.64283752 C-220.81998784 942.53290898 -214.91666247 951.70009458 -208.15287781 960.62818909 C-207.71717468 961.20810608 -207.28147156 961.78802307 -206.83256531 962.38551331 C-200.11183553 971.28998898 -192.90167947 979.60630191 -185.15287781 987.62818909 C-184.25448181 988.55945618 -184.25448181 988.55945618 -183.3379364 989.50953674 C-175.65842332 997.42686701 -167.85201454 1004.82639493 -159.15287781 1011.62818909 C-158.02431879 1012.55513556 -156.8981543 1013.48500248 -155.77397156 1014.41725159 C-133.67703277 1032.63628037 -108.67495227 1046.8094297 -83.15287781 1059.62818909 C-82.29113953 1060.06373108 -81.42940125 1060.49927307 -80.54154968 1060.94801331 C-41.59742658 1080.50277473 0.66934693 1093.18898463 42.84712219 1103.62818909 C42.92854965 1103.03693237 43.00997711 1102.44567566 43.09387207 1101.83650208 C44.83116597 1090.39741294 47.63849478 1079.18291193 50.27290344 1067.92506409 C50.82215976 1065.56537968 51.37107707 1063.20561634 51.91967773 1060.84577942 C53.36959197 1054.61289089 54.82395251 1048.38104829 56.27931213 1042.14942932 C57.99242301 1034.810478 59.70038558 1027.47032708 61.40862846 1020.13024139 C62.82614144 1014.04070127 64.24600415 1007.95172796 65.67088318 1001.86390686 C68.48115904 989.84830089 71.2640674 977.82756111 73.9807359 965.79048872 C74.99829169 961.28916854 76.02478039 956.78987209 77.04965782 952.29021454 C77.60363473 949.84546892 78.15302213 947.39967814 78.69748878 944.95279694 C79.45217972 941.56223543 80.22262475 938.17559575 80.99629211 934.7893219 C81.21135847 933.80265785 81.42642483 932.8159938 81.64800835 931.79943085 C84.84494182 918.00515863 90.85570723 909.12746408 102.84712219 901.62818909 C110.84198192 897.23260884 119.22855876 897.48205217 128.09963989 897.49688721 C129.22562566 897.49477149 130.35161143 897.49265578 131.51171798 897.49047595 C135.28083713 897.4844894 139.04992269 897.48547515 142.81904602 897.48634338 C145.52303225 897.48388225 148.22701549 897.47986351 150.93099976 897.47581482 C156.75255132 897.46771601 162.57409853 897.4627629 168.39565468 897.45952415 C177.60253356 897.45401599 186.80937563 897.43710705 196.01623535 897.41818237 C199.16909879 897.41182623 202.32196233 897.40551772 205.47482586 897.39920521 C206.26268943 897.39762145 207.050553 897.39603768 207.86229122 897.39440593 C216.82345946 897.37648227 225.78463027 897.36024928 234.74580383 897.3452301 C235.5646319 897.34385423 236.38345996 897.34247836 237.22710099 897.34106079 C250.49567734 897.31913157 263.76424414 897.30837399 277.0328354 897.30085935 C290.66787765 897.29278145 304.30283831 897.26947092 317.93783396 897.23290569 C326.34119405 897.21091382 334.74438624 897.20120584 343.14777365 897.20740602 C348.90909932 897.21058656 354.67028181 897.19921143 360.43156318 897.17651161 C363.75244026 897.16387615 367.07273251 897.15982408 370.3936615 897.16892815 C374.00064809 897.17781676 377.60673954 897.16212068 381.21365356 897.14044189 C382.25365204 897.14888443 383.29365052 897.15732697 384.3651641 897.16602534 C394.27199108 897.0562008 401.52608764 894.21712019 408.84712219 887.62818909 C409.50712219 887.62818909 410.16712219 887.62818909 410.84712219 887.62818909 C411.12705521 887.04076431 411.40698822 886.45333954 411.69540405 885.84811401 C412.76153192 883.79316346 413.95170509 882.00395433 415.27461243 880.10939026 C418.4648689 875.02445625 419.67396423 869.7331236 421.00727844 863.92897034 C421.29571121 862.72613907 421.58414398 861.5233078 421.88131714 860.2840271 C422.7074587 856.83195145 423.5131411 853.37536606 424.31493378 849.91756439 C424.86571447 847.54820858 425.42147442 845.1800692 425.97865295 842.81221008 C428.86559577 830.54290469 431.71267093 818.26452494 434.551754 805.98406982 C435.80849222 800.55086206 437.06820096 795.11834326 438.32783508 789.68580627 C438.84863321 787.43962106 439.36943094 785.19343576 439.89022827 782.94725037 C440.15051378 781.82467709 440.41079929 780.70210381 440.67897224 779.54551315 C441.47613142 776.10698914 442.27298425 772.66839425 443.06976318 769.2297821 C448.37532673 746.33508266 453.70685935 723.44645665 459.04305267 700.55887985 C461.02763632 692.04673537 463.01191124 683.53451891 464.99621964 675.02231026 C465.49554937 672.88034241 465.99489577 670.73837845 466.49425888 668.59641838 C470.20619807 652.67432076 473.9137161 636.75119818 477.61878014 620.82749939 C479.2567431 613.78838717 480.89533707 606.74942182 482.53393269 599.71045685 C483.83523231 594.12015028 485.13611468 588.52974735 486.43595886 582.93910217 C486.93033489 580.81299914 487.42472955 578.68690044 487.91914368 576.56080627 C488.1585691 575.53122047 488.39799452 574.50163467 488.64467525 573.4408493 C490.44091053 565.72065391 492.2474282 558.0028976 494.05863285 550.28620148 C495.19458794 545.43975898 496.3156586 540.59034393 497.41754627 535.73604393 C497.88933115 533.66383137 498.36688975 531.59305228 498.84698486 529.52275085 C499.40086513 527.13123986 499.94508083 524.73745423 500.47628784 522.34080505 C503.34222037 510.11909426 508.71471582 501.69882632 518.82368469 494.27662659 C526.0866974 490.31668943 533.43306265 489.18273094 541.60690308 489.24723816 C542.53606362 489.24255819 543.46522416 489.23787822 544.42254108 489.23305643 C547.50765804 489.22117757 550.59232492 489.23053572 553.67744446 489.24000549 C555.9007442 489.23593667 558.12404191 489.23059304 560.34733582 489.22407532 C566.36580176 489.21043384 572.38411291 489.21568714 578.40258145 489.22521257 C584.70977769 489.23282461 591.01696094 489.22575936 597.32415771 489.22105408 C608.59109313 489.21525251 619.85796493 489.2245559 631.12488537 489.23983209 C641.32749841 489.25323723 651.53000904 489.25090271 661.73262024 489.23707581 C673.60060843 489.2209993 685.46854708 489.21505665 697.33654827 489.2239126 C703.61163379 489.22858363 709.88664885 489.22922947 716.16172981 489.21930313 C722.06087754 489.21062267 727.95983227 489.21667533 733.8589592 489.2339859 C736.02084852 489.23794476 738.18275414 489.23682702 740.34463692 489.23019791 C743.30141717 489.2219688 746.25758353 489.23232067 749.21432495 489.24723816 C750.06453344 489.24054599 750.91474194 489.23385383 751.79071432 489.22695887 C758.38963846 489.29129041 764.91135397 490.28545585 770.18696594 494.49537659 C770.7141925 495.15795471 771.24141907 495.82053284 771.78462219 496.50318909 C772.32989563 497.16061096 772.87516907 497.81803284 773.43696594 498.49537659 C778.09905854 505.54663021 777.59624059 513.07468803 776.26655579 521.15715027 C775.42511918 525.16286489 774.49640775 529.13840678 773.53462219 533.11647034 C773.17396958 534.65207195 772.81453615 536.18796032 772.45620728 537.72410583 C771.67916945 541.04381446 770.89382411 544.36140515 770.10191345 547.67759705 C768.81387259 553.07185258 767.54452845 558.47041048 766.27754211 563.86964417 C764.67678517 570.68554549 763.07137637 577.50032153 761.46041775 584.31381893 C758.30776565 597.64918568 755.1896254 610.99241067 752.08540344 624.33912659 C751.8443261 625.37547178 751.60324875 626.41181698 751.35486603 627.47956657 C750.37105698 631.70890753 749.3873536 635.93827303 748.40388489 640.16769314 C745.61763905 652.14913624 742.82422671 664.1289069 740.03071594 676.10865784 C739.51518585 678.3197209 738.99966258 680.53078556 738.48414612 682.74185181 C735.6674128 694.82269265 732.85014315 706.9034084 730.03269768 718.98408318 C728.01310052 727.64394457 725.99423851 736.30397724 723.97555733 744.9640522 C722.48180772 751.37158079 720.98673032 757.77879787 719.49069405 764.18579292 C714.41677918 785.91831542 709.37181966 807.65690079 704.39842987 829.41267014 C702.88352676 836.0352734 701.36351263 842.65670627 699.84381866 849.27821159 C698.40863392 855.5353479 696.98298928 861.79455785 695.56466961 868.05553722 C694.69066613 871.90369143 693.80788066 875.74979282 692.92277718 879.59540749 C692.51797868 881.36265245 692.11685331 883.13074379 691.71984673 884.89975548 C685.43637304 912.8752022 685.43637304 912.8752022 673.84712219 922.62818909 C667.69908713 926.37810861 661.46709976 929.74948177 654.1642828 929.75847435 C653.19609267 929.7620987 652.22790254 929.76572304 651.23037332 929.76945722 C650.16424942 929.76838897 649.09812551 929.76732072 647.99969482 929.76622009 C646.86895965 929.76904137 645.73822448 929.77186265 644.5732246 929.77476943 C640.76404495 929.78313786 636.95489428 929.78445561 633.14570618 929.78590393 C630.4226052 929.79000342 627.69950805 929.79564721 624.97640991 929.80130005 C619.10131426 929.81283177 613.22622149 929.8210731 607.35111809 929.82741928 C598.0605467 929.83774452 588.7700111 929.85830894 579.47946167 929.88053894 C576.30066216 929.888019 573.1218625 929.89543272 569.94306278 929.90282631 C569.14858435 929.90467688 568.35410593 929.90652744 567.53555239 929.90843409 C558.48894047 929.929367 549.44232459 929.94819128 540.39570618 929.96607971 C539.15509923 929.96853698 539.15509923 929.96853698 537.88942952 929.9710439 C524.49773894 929.99730763 511.10604561 930.01596231 497.7143402 930.03267162 C483.96191367 930.0501079 470.20954109 930.07897131 456.45715767 930.11756098 C447.97731788 930.14093075 439.49756607 930.15495284 431.01769383 930.15688862 C425.20121849 930.15900215 419.38483051 930.17196605 413.56839442 930.19336794 C410.21522568 930.20536521 406.86237657 930.21093053 403.50916672 930.2066555 C399.86706714 930.20275437 396.22547723 930.21723733 392.58343506 930.2361908 C391.53292621 930.2306611 390.48241735 930.2251314 389.4000749 930.21943414 C377.33626379 930.3275418 367.60295574 933.77087306 359.02680969 942.47584534 C352.33327604 950.6661742 350.19981242 961.49262353 347.88960266 971.57740784 C347.48854057 973.29037552 347.48854057 973.29037552 347.07937622 975.03794861 C346.20124425 978.79572639 345.33273898 982.55565825 344.46430969 986.31568909 C343.84514464 988.97738101 343.22392556 991.63859242 342.60276794 994.29981995 C341.13250938 1000.60413273 339.66917221 1006.91003062 338.20836937 1013.21654034 C336.58451758 1020.22551378 334.95314738 1027.23272904 333.32100058 1034.2397747 C330.35182104 1046.98771325 327.3900522 1059.73736142 324.43212509 1072.48791504 C321.81755587 1083.75791866 319.19794221 1095.02674498 316.57649612 1106.29515076 C315.7376878 1109.90084824 314.89907726 1113.50659171 314.06046677 1117.11233521 C313.32273549 1120.28429819 312.58493342 1123.4562447 311.84712219 1126.62818909 C411.80070664 1120.93721869 510.37247768 1107.77195864 607.84712219 1084.62818909 C608.83887451 1084.39271362 609.83062683 1084.15723816 610.85243225 1083.91462708 C702.08050767 1062.18129948 791.50274003 1032.96848378 1040.20454407 920.10768127 C1043.19577619 918.43298923 1046.20034606 916.78375823 1049.20649719 915.13600159 C1065.28949338 906.29981564 1081.12450653 897.08933368 1096.84712219 887.62818909 C1098.40318176 886.69329651 1098.40318176 886.69329651 1099.99067688 885.73951721 C1110.60360635 879.35351381 1121.18050217 872.93624679 1131.44721985 866.00196838 C1135.14762398 863.54436477 1138.51527632 861.82962554 1142.84712219 860.62818909 C1138.84865948 864.89063654 1134.49283555 868.24911866 1129.73774719 871.63209534 C1128.95015015 872.19626663 1128.1625531 872.76043793 1127.35108948 873.34170532 C1118.5585756 879.60355599 1109.59416382 885.60322655 1100.59712219 891.56568909 C1099.31869949 892.41500504 1099.31869949 892.41500504 1098.01445007 893.28147888 C1085.05797225 901.88870264 1072.0793982 910.44870931 1058.84712219 918.62818909 C1057.80185364 919.27481506 1056.75658508 919.92144104 1055.67964172 920.58766174 C1038.28244211 931.31656109 1020.65799998 941.60294989 1002.84712219 951.62818909 C1001.72982727 952.25966858 1000.61253235 952.89114807 999.46138 953.54176331 C984.29915962 962.10221971 968.97411879 970.28106334 953.47993469 978.21803284 C948.9138172 980.5575426 944.37254344 982.9350738 939.85249329 985.36207581 C913.80475429 999.31430272 886.84832712 1011.65075937 859.84712219 1023.62818909 C859.13850037 1023.94296204 858.42987854 1024.25773499 857.69978333 1024.58204651 C804.45645631 1048.21044038 749.99284584 1068.90005025 694.84712219 1087.62818909 C693.99474976 1087.91824829 693.14237732 1088.2083075 692.26417542 1088.50715637 C603.18961814 1118.77632871 511.27512642 1141.26173056 301.84712219 1171.62818909 C298.11733272 1184.99756753 295.0278962 1198.50818082 291.90962219 1212.03053284 C291.34225272 1214.48189148 290.77462093 1216.93318942 290.20674133 1219.38442993 C288.7200664 1225.8039647 287.23611338 1232.22412575 285.75300598 1238.64448547 C283.38078754 1248.91361325 281.00516084 1259.18195197 278.62760925 1269.44984627 C277.80438832 1273.0076084 276.98301177 1276.56579261 276.16181946 1280.12402344 C274.73592324 1286.29499643 273.29779066 1292.4629936 271.84712219 1298.62818909 C271.64930145 1299.4719875 271.45148071 1300.3157859 271.24766541 1301.18515396 C270.72082383 1303.41884051 270.18466298 1305.6500115 269.64399719 1307.88038635 C269.35750305 1309.07116287 269.07100891 1310.26193939 268.77583313 1311.48880005 C265.86750387 1321.32003668 259.32554013 1328.68629457 250.63227844 1333.97584534 C246.06225131 1336.35021698 241.94181885 1337.74913413 236.75404739 1337.76241016 C235.53727983 1337.76909693 235.53727983 1337.76909693 234.2959311 1337.77591878 C233.41033942 1337.77573442 232.52474774 1337.77555006 231.61231995 1337.77536011 C230.19458397 1337.78087514 230.19458397 1337.78087514 228.74820685 1337.78650159 C225.57316535 1337.7975368 222.39815657 1337.80138199 219.22309875 1337.80519104 C216.94980261 1337.81145575 214.67650749 1337.81810255 212.4032135 1337.82510376 C206.22129574 1337.84251113 200.03938572 1337.85306456 193.85744953 1337.86130929 C189.99593026 1337.86645942 186.13441339 1337.87253511 182.27289581 1337.87882042 C171.57725389 1337.89568792 160.88161537 1337.91032327 150.18596268 1337.91756916 C147.41188302 1337.91947897 144.63780338 1337.92139932 141.86372375 1337.9233551 C141.17426162 1337.92383884 140.48479948 1337.92432258 139.77444455 1337.92482098 C128.60589437 1337.93312113 117.43745129 1337.95845933 106.26894787 1337.99093578 C94.79688761 1338.02402246 83.32490726 1338.04168664 71.85279441 1338.0452134 C65.41384331 1338.04756539 58.97506161 1338.05654573 52.5361557 1338.08167458 C46.47866942 1338.1049332 40.42146434 1338.10919723 34.36394501 1338.09891319 C32.14196335 1338.09841721 29.91996796 1338.10475592 27.69802856 1338.11846924 C24.66163485 1338.13615923 21.62625348 1338.12909572 18.58985901 1338.11593628 C17.27485582 1338.13239015 17.27485582 1338.13239015 15.93328691 1338.14917642 C10.11580254 1338.08841858 5.71577469 1336.89095702 0.84712219 1333.62818909 C-1.21147156 1331.37428284 -1.21147156 1331.37428284 -2.59037781 1329.06568909 C-3.30000671 1327.91906799 -3.30000671 1327.91906799 -4.02397156 1326.74928284 C-8.47236846 1318.39122221 -6.00145358 1308.36326632 -3.89311218 1299.62184143 C-3.65236969 1298.5808429 -3.4116272 1297.53984436 -3.16358948 1296.46730042 C-2.36948729 1293.04676325 -1.55823615 1289.63054837 -0.74662781 1286.21412659 C-0.18184534 1283.79807476 0.38189657 1281.38177949 0.94465637 1278.96525574 C2.4300937 1272.6000807 3.93028103 1266.23846973 5.4334259 1259.87745667 C6.93231818 1253.52183301 8.41618446 1247.16270546 9.90180969 1240.80397034 C15.76986903 1215.71796307 21.70490379 1190.64861159 27.84712219 1165.62818909 C26.75149963 1165.52006897 25.65587708 1165.41194885 24.52705383 1165.30055237 C13.66834308 1164.18719213 2.99932071 1162.57437217 -7.71537781 1160.50318909 C-8.50158508 1160.35301331 -9.28779236 1160.20283752 -10.0978241 1160.04811096 C-26.92958509 1156.82132728 -43.56580467 1152.92895023 -60.15287781 1148.62818909 C-61.23327332 1148.35039612 -62.31366882 1148.07260315 -63.42680359 1147.78639221 C-139.43656461 1128.03230658 -213.29318133 1094.37415154 -269.52787781 1038.50318909 C-270.44327332 1037.59713928 -271.35866882 1036.69108948 -272.30180359 1035.75758362 C-278.34176366 1029.68908658 -283.87011963 1023.3641129 -289.15287781 1016.62818909 C-289.75889832 1015.85587952 -290.36491882 1015.08356995 -290.98930359 1014.28785706 C-331.33998917 962.10372234 -348.53754657 896.7566314 -340.50785828 831.34986877 C-328.79487581 741.54496605 -281.09763729 661.39952082 -223.22807312 593.45533752 C-220.41169839 590.14253033 -217.67252594 586.78146103 -214.96537781 583.37818909 C-209.80162621 577.029921 -204.15079581 571.15114857 -198.50834656 565.22975159 C-196.12610759 562.7290494 -193.76461894 560.21224795 -191.43363953 557.66383362 C-184.64741512 550.24469599 -177.70195262 543.01978425 -170.57865906 535.92359924 C-168.88606434 534.23642951 -167.19897184 532.54388713 -165.51225281 530.85084534 C-160.46916022 525.80466519 -155.40286015 520.83687661 -149.97270203 516.20289612 C-146.6567799 513.33360477 -143.51622364 510.27547237 -140.34037781 507.25318909 C-134.96386281 502.17083371 -129.51412191 497.34424754 -123.72709656 492.73365784 C-120.94257433 490.45618062 -118.29873977 488.06506901 -115.65287781 485.62818909 C-110.8464706 481.21441797 -105.88177697 477.06458599 -100.80326843 472.96949768 C-98.9044898 471.42631872 -97.02032042 469.86628112 -95.13725281 468.30397034 C-87.61726924 462.06740866 -80.05831055 455.91641857 -72.27787781 450.00709534 C-69.65852312 448.01311158 -67.05507746 446.00174255 -64.45756531 443.97950745 C-63.65045105 443.35128586 -62.84333679 442.72306427 -62.01176453 442.07580566 C-61.39833191 441.59809219 -60.78489929 441.12037872 -60.15287781 440.62818909 C-60.7239325 440.62232285 -61.29498718 440.6164566 -61.88334656 440.6104126 C-67.85387988 440.54622966 -73.82388655 440.46174709 -79.79399109 440.36573792 C-82.01885513 440.3325865 -84.24380129 440.30452443 -86.46879578 440.28175354 C-89.6763441 440.24802764 -92.88314647 440.19570197 -96.09037781 440.13990784 C-97.07715515 440.13351791 -98.0639325 440.12712799 -99.08061218 440.12054443 C-107.0913763 439.95192341 -114.32559081 438.61734517 -120.15287781 432.62818909 C-125.41460289 425.96908783 -124.92211635 417.67689729 -124.15287781 409.62818909 C-123.05629216 402.46910449 -121.23573286 395.44716176 -119.52006531 388.41725159 C-119.01836677 386.30631839 -118.51825103 384.1950085 -118.01957703 382.08335876 C-116.94182928 377.53314603 -115.85386846 372.9855459 -114.75779724 368.43971252 C-112.99102893 361.11074273 -111.24785416 353.77628595 -109.50883484 346.44068909 C-107.65644627 338.63033681 -105.80321467 330.82020137 -103.94264221 323.01179504 C-99.43572371 304.09219451 -94.99118057 285.15868195 -90.59037781 266.21412659 C-90.43451627 265.54322172 -90.27865474 264.87231685 -90.11807013 264.18108153 C-88.38356442 256.71423464 -86.6508445 249.24697406 -84.91893005 241.77952576 C-83.02689395 233.62181528 -81.13156669 225.46487134 -79.23539734 217.30812073 C-79.07944068 216.63722573 -78.92348403 215.96633074 -78.76280141 215.2751056 C-78.13474152 212.57333243 -77.50666987 209.871562 -76.87856972 207.1697982 C-75.78987727 202.48677188 -74.70142342 197.80369016 -73.6131134 193.12057495 C-67.89011404 168.49407776 -62.16290696 143.86856173 -56.42881775 119.24464417 C-55.43427945 114.97360607 -54.44025388 110.70244924 -53.44676208 106.4311676 C-51.00190933 95.92115333 -48.55050826 85.41274101 -46.08576012 74.90737343 C-44.74751289 69.19483416 -43.4282763 63.47820491 -42.12018967 57.75868702 C-41.23222035 53.8855209 -40.3340576 50.01476079 -39.43398285 46.14439201 C-39.01395349 44.32774339 -38.5983062 42.51007481 -38.18750763 40.6913166 C-32.98671617 17.6865333 -32.98671617 17.6865333 -24.96537781 9.81568909 C-23.95410828 8.78508362 -23.95410828 8.78508362 -22.92240906 7.73365784 C-15.66960335 2.21988876 -9.0579092 -0.12069437 0 0 Z " fill="#0093DC" transform="translate(342.1528778076172,-0.6281890869140625)"/>
<path d="M0 0 C1.48617885 -0.00262098 2.97235496 -0.00788278 4.45851642 -0.015535 C8.51578786 -0.02887432 12.57209883 -0.00505999 16.62924802 0.02513337 C21.01423361 0.05114917 25.39916911 0.04226852 29.78421021 0.03771973 C37.37270532 0.03458021 44.96088987 0.05333574 52.54930687 0.08714676 C63.52070258 0.13599907 74.49194878 0.15154463 85.46344147 0.15907471 C103.26573648 0.17219239 121.06786613 0.21208376 138.87007141 0.26889038 C156.1588 0.32400099 173.4474836 0.36645369 190.73628235 0.39193726 C192.33596404 0.39430177 192.33596404 0.39430177 193.96796253 0.39671405 C199.31828277 0.40454452 204.66860334 0.41212671 210.01892412 0.41958547 C254.37477588 0.48174193 298.73044732 0.58738247 343.08613586 0.7215271 C343.14036533 2.158608 343.1790331 3.59628172 343.21113586 5.0340271 C343.23433899 5.83453491 343.25754211 6.63504272 343.28144836 7.45980835 C343.08613586 9.7215271 343.08613586 9.7215271 341.08613586 12.7215271 C338.85322571 13.56185913 338.85322571 13.56185913 336.04707336 14.2293396 C334.48195007 14.61859619 334.48195007 14.61859619 332.88520813 15.01571655 C331.19029236 15.42696777 331.19029236 15.42696777 329.46113586 15.8465271 C300.61642177 23.26282669 274.43796907 34.57309071 251.58613586 53.9090271 C251.01016663 54.39613159 250.43419739 54.88323608 249.84077454 55.38510132 C249.29268127 55.86092651 248.74458801 56.33675171 248.17988586 56.82699585 C247.70228821 57.24102661 247.22469055 57.65505737 246.73262024 58.08163452 C244.3270754 60.47754862 242.23593916 63.09411615 240.08613586 65.7215271 C240.81084076 65.76053635 241.53554565 65.79954559 242.2822113 65.83973694 C324.13593873 70.27224781 405.17410273 78.48173007 559.08613586 132.7215271 C559.97687805 133.14643433 560.86762024 133.57134155 561.78535461 134.00912476 C606.34917691 155.27132665 650.86640463 186.1288311 681.08613586 225.7215271 C682.01410798 226.89763457 682.94252306 228.07339262 683.87129211 229.24887085 C695.54032624 244.20838979 705.096796 260.52898464 713.08613586 277.7215271 C713.60562805 278.83140991 714.12512024 279.94129272 714.66035461 281.08480835 C725.92755225 306.25117367 733.33543747 334.08201016 733.45722961 361.71762085 C733.47077232 363.68083031 733.47077232 363.68083031 733.48458862 365.68370056 C733.5009497 368.44608999 733.50875206 371.20836038 733.51167297 373.97079468 C733.51592955 376.73291334 733.53644299 379.49407591 733.57319641 382.25595093 C734.63477873 463.61153756 696.99817831 541.06443207 650.08613586 605.7215271 C649.53167786 606.48996948 648.97721985 607.25841187 648.40596008 608.05014038 C640.75605133 618.6365086 632.84039085 628.93861128 624.50996399 638.99789429 C622.49773114 641.43382775 620.51305837 643.89195185 618.52363586 646.3465271 C610.37996272 656.27348633 601.99638465 665.95594741 593.2323761 675.33969116 C590.85069667 677.89291469 588.49454765 680.468053 586.14479065 683.05072021 C578.82740236 691.06293995 571.20406519 698.75643845 563.52119446 706.4168396 C561.32161515 708.61101212 559.12749579 710.81054433 556.93379211 713.0105896 C555.51093587 714.43278566 554.08776977 715.85467181 552.66426086 717.2762146 C552.02136108 717.92113861 551.3784613 718.56606262 550.71607971 719.23052979 C546.91180166 723.01550836 542.99876648 726.61909443 538.92868042 730.11709595 C535.78999602 732.85016582 532.79371414 735.73396222 529.77363586 738.5965271 C524.57510156 743.49002558 519.26623233 748.1326283 513.68379211 752.5887146 C510.950587 754.83281985 508.36476994 757.19020463 505.77363586 759.5965271 C501.16342229 763.83949749 496.36686628 767.72029373 491.414505 771.54745483 C487.41572504 774.64663153 483.54185329 777.85525534 479.71113586 781.1590271 C473.84443683 786.18966358 467.72905011 790.82366483 461.51972961 795.42074585 C457.4257866 798.45429355 453.38269123 801.55123549 449.3417511 804.65487671 C440.13850086 811.71729292 430.82737442 818.56840758 421.29756165 825.1824646 C418.89663708 826.85341055 416.5045054 828.53644949 414.11347961 830.2215271 C409.11731544 833.7402799 404.10653774 837.23745687 399.08613586 840.7215271 C398.33896301 841.24150269 397.59179016 841.76147827 396.82197571 842.29721069 C394.77069089 843.71925567 392.71155233 845.12892706 390.64863586 846.5340271 C390.05228333 846.94862183 389.45593079 847.36321655 388.84150696 847.79037476 C385.62176439 849.96014056 382.96290988 851.2795024 379.08613586 851.7215271 C382.41755329 847.04373372 386.40115231 843.97433034 390.96113586 840.5965271 C392.49552121 839.44098209 394.02936772 838.28472127 395.56269836 837.1277771 C396.32614563 836.55414429 397.0895929 835.98051147 397.87617493 835.38949585 C406.81117922 828.64579839 415.4830466 821.61755242 423.99238586 814.3465271 C426.88164907 811.88236746 429.82132044 809.4849171 432.77363586 807.0965271 C437.22517395 803.47318215 441.50996041 799.70188838 445.75410461 795.8387146 C447.84437476 793.94101541 449.95599701 792.07419295 452.08613586 790.2215271 C456.80210603 786.10920111 461.4493512 781.92277564 466.08613586 777.7215271 C467.06066711 776.84109741 468.03519836 775.96066772 469.03926086 775.05355835 C474.78058291 769.8442507 480.33664211 764.50929191 485.78535461 758.99105835 C487.8465565 756.95785241 489.95220243 755.04354099 492.14863586 753.1590271 C498.69529605 747.53629073 504.59770851 741.36579382 510.20722961 734.81918335 C512.41240883 732.3572681 514.73500264 730.0442907 517.08613586 727.7215271 C520.63531744 724.2097616 524.00582044 720.63143809 527.25019836 716.8387146 C529.43819756 714.31553255 531.69906699 711.86598191 533.96113586 709.4090271 C538.41302242 704.52264712 542.61916716 699.48617167 546.76679993 694.34115601 C548.2407845 692.53167902 549.73603841 690.74119105 551.23457336 688.95199585 C564.69764924 672.84170757 577.17341251 656.00547836 589.08613586 638.7215271 C589.7249469 637.79726929 589.7249469 637.79726929 590.37666321 636.8543396 C601.65811968 620.45774321 611.61682859 603.21558574 621.08613586 585.7215271 C621.69296204 584.61140259 622.29978821 583.50127808 622.92500305 582.35751343 C627.60545769 573.74233607 631.90537465 565.0179374 635.83613586 556.0340271 C636.27735779 555.02780304 636.27735779 555.02780304 636.72749329 554.00125122 C666.49112581 485.65771596 678.17853302 407.07520944 651.53926086 335.78012085 C642.00341702 311.57343773 629.47460519 288.95487859 613.08613586 268.7215271 C612.3835968 267.82691772 611.68105774 266.93230835 610.95722961 266.0105896 C597.01461177 248.498867 580.91479927 232.63502916 563.02607727 219.18148804 C561.66742698 218.15899512 560.31329722 217.13048058 558.96260071 216.09750366 C488.65214031 162.35682912 400.87405226 135.62346804 226.41035461 110.0809021 C222.92560154 109.82027582 219.52324326 109.3719422 216.08613586 108.7215271 C215.9698735 109.82468262 215.85361115 110.92783813 215.73382568 112.06442261 C215.08684695 117.20899668 213.9200451 122.19473529 212.72309875 127.23519897 C212.4813388 128.26817108 212.23957884 129.30114319 211.99049282 130.36541748 C211.18379853 133.80795893 210.37125839 137.24909371 209.55879211 140.6902771 C208.98039784 143.15393037 208.40240454 145.61767781 207.82478333 148.08151245 C206.58531108 153.36537128 205.34348491 158.64866783 204.09959412 163.93148804 C202.13652338 172.26924766 200.17983461 180.60849789 198.2245636 188.9480896 C197.89277962 190.36312364 197.56099537 191.77815762 197.22921085 193.19319153 C196.72814649 195.33022357 196.22709346 197.46725826 195.72607261 199.6043005 C194.71096663 203.93400652 193.69545413 208.26361695 192.67961127 212.59315014 C186.1975744 240.21985434 179.74966468 267.85439402 173.32804871 295.49520874 C172.21911701 300.2681402 171.10885493 305.04075881 169.99729919 309.81307983 C166.86418886 323.26654237 163.74691573 336.72343797 160.66643524 350.1890564 C160.11767364 352.58389383 159.56580778 354.97799383 159.01307678 357.37191772 C158.11311245 361.27648127 157.23558122 365.18564654 156.36347961 369.0965271 C156.00027367 370.66297974 156.00027367 370.66297974 155.62973022 372.26107788 C153.72054908 381.00881476 152.01132525 390.94582748 156.74629211 399.0340271 C160.02416947 403.1624324 163.94899024 405.66388675 169.08613586 406.7215271 C170.69661357 406.81050715 172.31032416 406.8480827 173.92325783 406.84901905 C175.38897978 406.85353052 175.38897978 406.85353052 176.88431227 406.85813314 C177.95530523 406.85638277 179.02629819 406.85463239 180.12974548 406.85282898 C181.26950219 406.85494469 182.40925889 406.85706041 183.58355367 406.85924023 C187.41726901 406.86524988 191.25095153 406.86423939 195.08467102 406.8633728 C197.8276231 406.86583119 200.57057221 406.86985056 203.31352234 406.87390137 C209.22843544 406.88201406 215.14334423 406.88695816 221.05826187 406.89019203 C230.41192182 406.89569141 239.76554535 406.91259231 249.1191864 406.93153381 C252.32020753 406.93789063 255.52122876 406.94419908 258.72224998 406.95051098 C259.92224879 406.95288662 259.92224879 406.95288662 261.14648999 406.95531026 C270.25348521 406.97324757 279.36048302 406.98947297 288.46748352 407.00448608 C289.29997055 407.00586196 290.13245757 407.00723783 290.99017148 407.00865539 C304.47233395 407.03057224 317.95448704 407.04133845 331.43666418 407.04885683 C345.28405313 407.05693468 359.13136174 407.08024743 372.97870481 407.1168105 C381.51621888 407.13880891 390.05356764 407.14850831 398.59110861 407.14231016 C404.44637271 407.13912968 410.30149592 407.15050445 416.15671642 407.17320458 C419.53225201 407.18584183 422.90721208 407.18989068 426.28279877 407.18078804 C429.94905815 407.17190111 433.61443645 407.18759306 437.28062439 407.20927429 C438.33823302 407.20083175 439.39584165 407.19238922 440.48549902 407.18369085 C447.89473061 407.26452185 455.48551935 408.23862669 461.03001082 413.60185033 C465.07758098 418.46498645 467.25782209 423.63122936 466.99081039 429.99258614 C466.40525103 435.71021308 465.46245322 441.2130346 464.13789368 446.80307007 C463.84081229 448.09074484 463.84081229 448.09074484 463.53772926 449.40443325 C462.87753962 452.25894805 462.20843115 455.11129287 461.53926086 457.9637146 C461.05966154 460.02863096 460.58060154 462.09367265 460.10203552 464.15882874 C458.7955313 469.78934907 457.48112508 475.41799859 456.16529083 481.04634476 C454.76154599 487.0567413 453.3650548 493.06882354 451.96748352 499.08065796 C448.65802112 513.30898307 445.33651439 527.53448211 442.01208496 541.75931549 C441.09274339 545.69309986 440.17370588 549.62695523 439.25471497 553.56082153 C433.9231547 576.38265202 428.58748398 599.20352074 423.24498785 622.02279377 C416.05098606 652.75042757 408.87128155 683.48129788 401.73089123 714.22143936 C400.2792431 720.47087552 398.82601274 726.71994031 397.37126064 732.96865463 C391.43603468 758.46355082 391.43603468 758.46355082 385.65272331 783.99320602 C384.94957776 787.13709293 384.24113884 790.27978808 383.53364563 793.42269897 C382.57383707 797.68730936 381.63319831 801.95537054 380.70698547 806.22738647 C377.12981594 822.36653762 372.52532348 834.91317076 358.00019836 844.2059021 C351.53853036 847.5666624 345.7290927 848.01557992 338.57995605 847.99568176 C337.6418137 848.00091844 336.70367134 848.00615512 335.73710042 848.01155049 C332.60364618 848.02651365 329.47035576 848.02725483 326.33686829 848.02792358 C324.08607712 848.03554748 321.83528856 848.04397537 319.58450317 848.05314636 C313.47699797 848.07507409 307.36954283 848.08388785 301.26200271 848.08897281 C297.44450205 848.09261808 293.62701448 848.09885901 289.80951881 848.1059742 C279.22785133 848.12542324 268.64619471 848.14194091 258.06450939 848.14485073 C257.38822027 848.1450383 256.71193115 848.14522587 256.01514842 848.14541912 C254.64432069 848.14578536 253.27349295 848.14614906 251.90266522 848.14651024 C251.22224129 848.14669305 250.54181737 848.14687586 249.84077454 848.14706421 C248.81888486 848.14733503 248.81888486 848.14733503 247.77635095 848.14761133 C236.73863685 848.15115267 225.70111787 848.1781768 214.66347142 848.2155621 C203.31559986 848.2536889 191.96785657 848.27256788 180.61990815 848.27331024 C174.25468259 848.27410285 167.88970897 848.28283464 161.52454185 848.31130791 C155.53671504 848.337495 149.54934899 848.33968969 143.56149101 848.32365227 C141.36775965 848.32183839 139.17400175 848.32852287 136.98032761 848.34447098 C114.99866199 848.49449756 114.99866199 848.49449756 108.08613586 842.7215271 C102.41648402 836.63395862 101.70343976 831.03599935 101.7754364 823.00430298 C102.21395468 814.52003587 104.60932661 806.24741587 106.60566711 798.0262146 C107.09306255 795.96778202 107.57900333 793.90900455 108.06361389 791.84991455 C109.10850479 787.42306359 110.16297091 782.99864783 111.2250824 778.57589722 C112.93203361 771.46700543 114.61718869 764.35305536 116.29878235 757.23812866 C118.07367679 749.73254804 119.84987909 742.2272913 121.63327026 734.72372437 C125.77062638 717.31379205 129.86231596 699.89371961 133.91426086 682.4637146 C134.19274872 681.26576515 134.47123657 680.0678157 134.75816345 678.83356476 C136.16233936 672.79185303 137.56554272 666.74991598 138.96821594 660.70785522 C141.48924128 649.84944877 144.01639001 638.99246696 146.54310608 628.13538361 C147.38097666 624.53495583 148.21868493 620.93449032 149.05635071 617.33401489 C153.00540519 600.36078792 156.95872333 583.38855681 160.91426086 566.4168396 C161.32851727 564.63936844 161.32851727 564.63936844 161.7511425 562.82598877 C164.14118678 552.57099208 166.53136567 542.3160268 168.92234802 532.06124878 C169.1679758 531.00770454 169.41360357 529.95416031 169.66667461 528.86869049 C170.1505895 526.79324662 170.63458726 524.71782208 171.11867237 522.64241791 C172.25461083 517.77137864 173.38877068 512.89994139 174.5184021 508.0274353 C177.96178908 493.18365126 177.96178908 493.18365126 179.61136723 486.44516563 C180.06282882 484.60039709 180.5086972 482.7542625 180.9543457 480.90808105 C181.45747942 478.82967507 181.97055131 476.75362471 182.49783325 474.68121338 C184.59065272 465.96635219 186.03919105 456.37853623 181.28535461 448.3387146 C178.00051853 443.90900079 174.32030872 442.07319038 169.08613586 440.7215271 C165.32212717 440.43086911 161.56897769 440.44914633 157.79528809 440.46324158 C156.65311697 440.45956587 155.51094585 440.45589017 154.33416349 440.45210308 C150.50429058 440.4421175 146.6745627 440.44627508 142.84468079 440.45028687 C140.09980795 440.44702195 137.35494433 440.44070859 134.6100769 440.43444824 C128.69737435 440.42241167 122.78469872 440.41729574 116.87198448 440.41656685 C108.31342198 440.41524004 99.75492474 440.40011796 91.1963853 440.38107168 C77.2972575 440.35023741 63.39812804 440.32606907 49.49897766 440.30819702 C48.25155016 440.306588 48.25155016 440.306588 46.97892211 440.30494647 C37.70319908 440.29312929 28.42747539 440.2829234 19.15174866 440.27450562 C15.78930154 440.27143172 12.42685443 440.26834292 9.06440735 440.26522827 C8.23471356 440.26446293 7.40501976 440.26369759 6.55018374 440.26290906 C-7.29385899 440.2498187 -21.1378545 440.22516698 -34.98186225 440.19148487 C-43.51642055 440.17121659 -52.05087778 440.16090248 -60.58546033 440.16347408 C-66.43600027 440.1645107 -72.28646039 440.15484738 -78.13697246 440.13683505 C-81.51029564 440.12681031 -84.88329436 440.12328395 -88.25664902 440.12960243 C-91.91863471 440.13574216 -95.580123 440.12351405 -99.24206543 440.10679626 C-100.30122266 440.11300808 -101.36037989 440.1192199 -102.4516328 440.12561995 C-109.58544157 440.06633932 -116.50933146 439.43833281 -122.25370789 434.8543396 C-122.78093445 434.19176147 -123.30816101 433.52918335 -123.85136414 432.8465271 C-124.66927429 431.86039429 -124.66927429 431.86039429 -125.50370789 430.8543396 C-130.26275114 423.65645147 -129.75259077 415.83264072 -128.19862366 407.62191772 C-127.18051 402.71398757 -126.00444066 397.84435391 -124.83183289 392.9715271 C-124.38927263 391.08853603 -123.94793797 389.20525657 -123.50772095 387.32171631 C-122.5555196 383.25885215 -121.59504904 379.19806656 -120.6280365 375.13870239 C-119.07265269 368.60899519 -117.53559405 362.07505703 -116.00126648 355.54037476 C-114.08265548 347.37410163 -112.15972362 339.20886866 -110.23168182 331.04481697 C-106.44673109 315.01475027 -102.70155995 298.97560727 -98.97245789 282.9324646 C-98.68545265 281.69786121 -98.39844742 280.46325783 -98.10274506 279.19124222 C-96.65641648 272.96907234 -95.21059002 266.74678594 -93.76499939 260.52444458 C-90.9289589 248.31845363 -88.08738437 236.11375059 -85.24589539 223.9090271 C-84.83787312 222.15626024 -84.83787312 222.15626024 -84.42160797 220.36808395 C-80.9758907 205.56637846 -77.52487054 190.76592374 -74.06700134 175.96705246 C-72.84608309 170.74103815 -71.62616123 165.51479112 -70.40620041 160.28855324 C-69.30652525 155.57840791 -68.20487681 150.86873002 -67.10163021 146.15942001 C-66.44495953 143.35447687 -65.79004248 140.54912659 -65.13564491 137.74365234 C-64.69749706 135.86783721 -64.25709582 133.99254887 -63.81661987 132.11727905 C-63.56229691 131.02552368 -63.30797394 129.93376831 -63.04594421 128.80892944 C-62.82537857 127.86641327 -62.60481293 126.92389709 -62.37756348 125.95281982 C-61.84604106 123.77499425 -61.84604106 123.77499425 -61.91386414 121.7215271 C-167.16214597 137.70922569 -270.41092205 162.26033558 -442.74778748 221.38664246 C-447.60932567 223.23952227 -452.49265035 225.01457263 -457.40238953 226.73617554 C-483.31973004 235.84122069 -508.69702176 247.02400646 -533.73808289 258.29330444 C-536.61682151 259.58794012 -539.49933963 260.87384041 -542.38270569 262.15812683 C-558.91186499 269.53096244 -575.26971981 277.22898111 -591.53886414 285.1590271 C-592.39923279 285.57764008 -593.25960144 285.99625305 -594.14604187 286.42755127 C-603.33828658 290.90616039 -612.48855929 295.41538706 -621.39155579 300.45185852 C-622.8680707 301.26711592 -624.38790634 302.00306086 -625.91386414 302.7215271 C-626.57386414 302.3915271 -627.23386414 302.0615271 -627.91386414 301.7215271 C-614.90050395 293.85551273 -601.57611629 286.63442094 -588.16777039 279.46762085 C-583.17271921 276.78720323 -578.19930905 274.067671 -573.22636414 271.3465271 C-570.58122089 269.90282363 -567.93563383 268.45993761 -565.2898407 267.01742554 C-563.7886931 266.19867384 -562.2879834 265.3791183 -560.78788757 264.55844116 C-553.17211705 260.39856651 -545.48984863 256.47904426 -537.60014343 252.86117554 C-532.84199941 250.67056571 -528.15534306 248.34909461 -523.47636414 245.9949646 C-514.82842198 241.64972507 -506.10415508 237.47576318 -497.35136414 233.3465271 C-496.57270996 232.97845947 -495.79405579 232.61039185 -494.99180603 232.23117065 C-484.45208008 227.25345676 -473.8801455 222.39134549 -463.14213562 217.85287476 C-459.17414623 216.17184694 -455.29262797 214.42883131 -451.46464539 212.4480896 C-443.59173497 208.45971838 -435.37943039 205.21075556 -427.22636414 201.8465271 C-426.33148285 201.47636475 -425.43660156 201.10620239 -424.51460266 200.724823 C-332.62781553 162.76096726 -237.77325224 132.17702461 -74.91386414 94.7215271 C-74.09734375 94.55811829 -73.28082336 94.39470947 -72.43955994 94.22634888 C-70.21478481 93.78445845 -67.98867346 93.35047196 -65.76152039 92.92074585 C-63.93826233 92.56822754 -63.93826233 92.56822754 -62.07817078 92.20858765 C-59.28686839 91.77894115 -56.72974744 91.61966824 -53.91386414 91.7215271 C-53.68747253 90.55041382 -53.46108093 89.37930054 -53.22782898 88.17269897 C-50.80914616 75.79632052 -48.13834564 63.4919081 -45.24198914 51.21859741 C-44.77023849 49.20776028 -44.3051476 47.19534997 -43.84648132 45.18148804 C-36.84245339 14.44103731 -36.84245339 14.44103731 -23.65961522 5.12921751 C-15.80680266 0.33518975 -9.02503688 -0.11933565 0 0 Z " fill="#EA891A" transform="translate(992.9138641357422,-0.721527099609375)"/>
<path d="M0 0 C0.92916054 -0.00467997 1.85832108 -0.00935994 2.81563801 -0.01418173 C5.90075497 -0.02606059 8.98542185 -0.01670244 12.07054138 -0.00723267 C14.29384112 -0.01130149 16.51713883 -0.01664512 18.74043274 -0.02316284 C24.75889868 -0.03680432 30.77720983 -0.03155102 36.79567838 -0.02202559 C43.10287461 -0.01441355 49.41005787 -0.0214788 55.71725464 -0.02618408 C66.98419006 -0.03198565 78.25106185 -0.02268226 89.5179823 -0.00740607 C99.72059534 0.00599907 109.92310596 0.00366455 120.12571716 -0.01016235 C131.99370536 -0.02623886 143.86164401 -0.03218151 155.72964519 -0.02332556 C162.00473071 -0.01865453 168.27974578 -0.01800869 174.55482674 -0.02793503 C180.45397446 -0.03661549 186.35292919 -0.03056283 192.25205612 -0.01325226 C194.41394544 -0.0092934 196.57585106 -0.01041113 198.73773384 -0.01704025 C201.69451409 -0.02526936 204.65068046 -0.01491748 207.60742188 0 C208.88273461 -0.01003825 208.88273461 -0.01003825 210.18381125 -0.02027929 C216.78273538 0.04405225 223.30445089 1.03821769 228.58006287 5.24813843 C229.10728943 5.91071655 229.63451599 6.57329468 230.17771912 7.25595093 C230.99562927 8.24208374 230.99562927 8.24208374 231.83006287 9.24813843 C236.49215546 16.29939205 235.98933751 23.82744987 234.65965271 31.90991211 C233.8182161 35.91562673 232.88950467 39.89116862 231.92771912 43.86923218 C231.5670665 45.40483379 231.20763308 46.94072216 230.8493042 48.47686768 C230.07226638 51.7965763 229.28692103 55.11416699 228.49501038 58.43035889 C227.20696951 63.82461443 225.93762537 69.22317232 224.67063904 74.62240601 C223.0698821 81.43830733 221.4644733 88.25308337 219.85351467 95.06658077 C216.70086257 108.40194752 213.58272233 121.74517251 210.47850037 135.09188843 C210.23742302 136.12823362 209.99634567 137.16457882 209.74796295 138.23232841 C208.76415391 142.46166937 207.78045053 146.69103487 206.79698181 150.92045498 C204.01073597 162.90189808 201.21732363 174.88166874 198.42381287 186.86141968 C197.90828278 189.07248275 197.39275951 191.2835474 196.87724304 193.49461365 C194.06050972 205.57545449 191.24324007 217.65617024 188.4257946 229.73684502 C186.40619744 238.39670641 184.38733543 247.05673908 182.36865425 255.71681404 C180.87490464 262.12434263 179.37982725 268.53155971 177.88379097 274.93855476 C172.80987611 296.67107726 167.76491658 318.40966263 162.79152679 340.16543198 C161.27662369 346.78803524 159.75660955 353.40946811 158.23691559 360.03097343 C156.80173084 366.28810974 155.3760862 372.54731969 153.95776653 378.80829906 C153.08376305 382.65645327 152.20097758 386.50255466 151.3158741 390.34816933 C150.9110756 392.11541429 150.50995024 393.88350563 150.11294365 395.65251732 C143.82946996 423.62796404 143.82946996 423.62796404 132.24021912 433.38095093 C126.09218406 437.13087045 119.86019668 440.50224361 112.55737972 440.51123619 C111.5891896 440.51486054 110.62099947 440.51848489 109.62347025 440.52221906 C108.55734634 440.52115081 107.49122244 440.52008256 106.39279175 440.51898193 C104.69668899 440.52321385 104.69668899 440.52321385 102.96632153 440.52753127 C99.15714188 440.5358997 95.34799121 440.53721745 91.5388031 440.53866577 C88.81570212 440.54276526 86.09260498 440.54840905 83.36950684 440.55406189 C77.49441119 440.56559361 71.61931841 440.57383494 65.74421501 440.58018112 C56.45364363 440.59050636 47.16310803 440.61107078 37.87255859 440.63330078 C34.69375908 440.64078084 31.51495942 440.64819457 28.33615971 440.65558815 C27.54168128 440.65743872 26.74720285 440.65928928 25.92864932 440.66119593 C16.8820374 440.68212884 7.83542152 440.70095312 -1.2111969 440.71884155 C-2.0382682 440.72047973 -2.86533949 440.72211792 -3.71747356 440.72380574 C-17.10916414 440.75006947 -30.50085747 440.76872415 -43.89256287 440.78543346 C-57.6449894 440.80286974 -71.39736199 440.83173315 -85.1497454 440.87032282 C-93.62958519 440.89369259 -102.109337 440.90771468 -110.58920925 440.90965046 C-116.40568459 440.91176399 -122.22207257 440.92472789 -128.03850866 440.94612978 C-131.39167739 440.95812705 -134.74452651 440.96369237 -138.09773636 440.95941734 C-141.73983594 440.95551622 -145.38142585 440.96999917 -149.02346802 440.98895264 C-150.07397687 440.98342294 -151.12448572 440.97789325 -152.20682818 440.97219598 C-164.27063929 441.08030364 -174.00394733 444.5236349 -182.58009338 453.22860718 C-189.27362703 461.41893604 -191.40709066 472.24538537 -193.71730042 482.33016968 C-193.98467514 483.47214813 -194.25204987 484.61412659 -194.52752686 485.79071045 C-195.40565883 489.54848823 -196.27416409 493.30842009 -197.14259338 497.06845093 C-197.76175844 499.73014286 -198.38297751 502.39135426 -199.00413513 505.05258179 C-200.4743937 511.35689457 -201.93773086 517.66279247 -203.3985337 523.96930218 C-205.02238549 530.97827562 -206.6537557 537.98549088 -208.2859025 544.99253654 C-211.25508203 557.74047509 -214.21685087 570.49012326 -217.17477798 583.24067688 C-219.78934721 594.5106805 -222.40896087 605.77950682 -225.03040695 617.0479126 C-225.86921528 620.65361008 -226.70782581 624.25935355 -227.54643631 627.86509705 C-228.28416759 631.03706003 -229.02196966 634.20900654 -229.75978088 637.38095093 C-129.80619644 631.68998054 -31.23442539 618.52472048 66.24021912 595.38095093 C67.23197144 595.14547546 68.22372375 594.91 69.24552917 594.66738892 C160.47360459 572.93406132 249.89583695 543.72124562 498.59764099 430.86044312 C501.58887312 429.18575107 504.59344298 427.53652007 507.59959412 425.88876343 C523.6825903 417.05257748 539.51760346 407.84209552 555.24021912 398.38095093 C556.27759216 397.75768921 557.31496521 397.13442749 558.3837738 396.49227905 C568.99670327 390.10627565 579.57359909 383.68900863 589.84031677 376.75473022 C593.5407209 374.29712661 596.90837325 372.58238738 601.24021912 371.38095093 C597.2417564 375.64339838 592.88593248 379.0018805 588.13084412 382.38485718 C587.34324707 382.94902847 586.55565002 383.51319977 585.7441864 384.09446716 C576.95167252 390.35631783 567.98726075 396.35598839 558.99021912 402.31845093 C557.71179642 403.16776688 557.71179642 403.16776688 556.407547 404.03424072 C543.45106917 412.64146448 530.47249512 421.20147115 517.24021912 429.38095093 C516.19495056 430.0275769 515.14968201 430.67420288 514.07273865 431.34042358 C496.67553904 442.06932293 479.0510969 452.35571173 461.24021912 462.38095093 C460.12292419 463.01243042 459.00562927 463.64390991 457.85447693 464.29452515 C442.69225654 472.85498155 427.36721571 481.03382518 411.87303162 488.97079468 C407.30691412 491.31030444 402.76564036 493.68783564 398.24559021 496.11483765 C372.19785121 510.06706456 345.24142405 522.40352121 318.24021912 534.38095093 C317.53159729 534.69572388 316.82297546 535.01049683 316.09288025 535.33480835 C262.84955324 558.96320222 208.38594277 579.65281209 153.24021912 598.38095093 C152.38784668 598.67101013 151.53547424 598.96106934 150.65727234 599.25991821 C61.58271506 629.52909055 -30.33177665 652.0144924 -239.75978088 682.38095093 C-243.48957036 695.75032937 -246.57900688 709.26094266 -249.69728088 722.78329468 C-250.26465035 725.23465332 -250.83228215 727.68595126 -251.40016174 730.13719177 C-252.88683667 736.55672654 -254.3707897 742.9768876 -255.85389709 749.39724731 C-258.22611553 759.66637509 -260.60174223 769.93471381 -262.97929382 780.20260811 C-263.80251475 783.76037024 -264.62389131 787.31855445 -265.44508362 790.87678528 C-266.87097983 797.04775827 -268.30911242 803.21575544 -269.75978088 809.38095093 C-269.95760162 810.22474934 -270.15542236 811.06854774 -270.35923767 811.9379158 C-270.88607924 814.17160235 -271.42224009 816.40277334 -271.96290588 818.63314819 C-272.24940002 819.82392471 -272.53589417 821.01470123 -272.83106995 822.24156189 C-275.7393992 832.07279852 -282.28136294 839.43905641 -290.97462463 844.72860718 C-295.54465177 847.10297882 -299.66508422 848.50189597 -304.85285568 848.515172 C-305.66403406 848.51962985 -306.47521244 848.52408769 -307.31097198 848.52868062 C-308.19656366 848.52849626 -309.08215534 848.5283119 -309.99458313 848.52812195 C-310.93974045 848.53179864 -311.88489777 848.53547532 -312.85869622 848.53926343 C-316.03373773 848.55029864 -319.20874651 848.55414383 -322.38380432 848.55795288 C-324.65710046 848.56421759 -326.93039558 848.57086439 -329.20368958 848.5778656 C-335.38560733 848.59527297 -341.56751736 848.6058264 -347.74945354 848.61407113 C-351.61097282 848.61922126 -355.47248969 848.62529695 -359.33400726 848.63158226 C-370.02964918 848.64844976 -380.72528771 848.66308511 -391.4209404 848.670331 C-394.19502005 848.67224081 -396.9690997 848.67416116 -399.74317932 848.67611694 C-400.43264146 848.67660068 -401.1221036 848.67708442 -401.83245853 848.67758282 C-413.00100871 848.68588297 -424.16945179 848.71122117 -435.33795521 848.74369762 C-446.81001546 848.7767843 -458.28199581 848.79444848 -469.75410867 848.79797524 C-476.19305976 848.80032723 -482.63184146 848.80930757 -489.07074738 848.83443642 C-495.12823365 848.85769505 -501.18543873 848.86195907 -507.24295807 848.85167503 C-509.46493972 848.85117905 -511.68693512 848.85751776 -513.90887451 848.87123108 C-516.94526823 848.88892107 -519.9806496 848.88185756 -523.01704407 848.86869812 C-524.33204726 848.88515199 -524.33204726 848.88515199 -525.67361617 848.90193826 C-531.49110054 848.84118042 -535.89112839 847.64371886 -540.75978088 844.38095093 C-542.81837463 842.12704468 -542.81837463 842.12704468 -544.19728088 839.81845093 C-544.90690979 838.67182983 -544.90690979 838.67182983 -545.63087463 837.50204468 C-550.0681383 829.16490222 -547.61909162 819.16032631 -545.5158844 810.43807983 C-545.2767482 809.40350647 -545.037612 808.36893311 -544.79122925 807.30300903 C-544.00195152 803.90169387 -543.19550574 800.50470656 -542.38868713 797.10751343 C-541.82630959 794.70104189 -541.26496363 792.29432906 -540.70458984 789.88739014 C-539.22448941 783.54347096 -537.72958593 777.20312803 -536.23176575 770.8633728 C-534.74258103 764.54725483 -533.26873861 758.22756116 -531.79298401 751.90829468 C-526.53443847 729.42078113 -521.20769365 706.95112097 -515.71836853 684.51879883 C-512.53217491 671.49485926 -509.46556895 658.44476573 -506.44728088 645.38095093 C-505.88521086 642.95524571 -505.32311706 640.529546 -504.76100159 638.10385132 C-501.50186996 624.02096747 -498.29491692 609.92702348 -495.12327576 595.82421875 C-494.90019745 594.83231537 -494.67711914 593.84041199 -494.44728088 592.81845093 C-494.22315521 591.821633 -493.99902954 590.82481506 -493.76811218 589.79779053 C-487.01580392 559.80884624 -479.98197815 529.88418767 -472.99375057 499.94957066 C-472.47528977 497.72865314 -471.95692535 495.50771312 -471.43866062 493.28674984 C-470.19541415 487.95969917 -468.9503911 482.6330775 -467.70132446 477.30738831 C-465.71473416 468.82884025 -463.73379907 460.35117187 -461.87599182 451.84335327 C-461.60926666 450.63587936 -461.3425415 449.42840546 -461.06773376 448.18434143 C-460.61361786 446.11402472 -460.16959796 444.04144165 -459.74015808 441.96586609 C-457.04489633 429.72365643 -451.67982681 420.97145111 -441.28321838 413.95907593 C-432.37760146 408.38961891 -423.7309067 408.23255213 -413.50726318 408.24964905 C-412.38127742 408.24753333 -411.25529165 408.24541762 -410.0951851 408.24323779 C-406.32606594 408.23725124 -402.55698039 408.23823699 -398.78785706 408.23910522 C-396.08387082 408.23664409 -393.37988758 408.23262535 -390.67590332 408.22857666 C-384.85435176 408.22047785 -379.03280455 408.21552474 -373.2112484 408.212286 C-364.00436952 408.20677783 -354.79752745 408.18986889 -345.59066772 408.17094421 C-342.43780428 408.16458807 -339.28494075 408.15827956 -336.13207722 408.15196705 C-334.95028186 408.1495914 -334.95028186 408.1495914 -333.74461186 408.14716777 C-324.78344362 408.12924411 -315.8222728 408.11301112 -306.86109924 408.09799194 C-306.04227118 408.09661607 -305.22344312 408.0952402 -304.37980209 408.09382264 C-291.11122574 408.07189341 -277.84265894 408.06113583 -264.57406767 408.0536212 C-250.93902543 408.04554329 -237.30406477 408.02223276 -223.66906911 407.98566753 C-215.26570902 407.96367566 -206.86251683 407.95396768 -198.45912943 407.96016786 C-192.69780376 407.9633484 -186.93662126 407.95197327 -181.1753399 407.92927345 C-177.85446281 407.91663799 -174.53417057 407.91258592 -171.21324158 407.92168999 C-167.60625498 407.9305786 -164.00016353 407.91488252 -160.39324951 407.89320374 C-158.8332518 407.90586754 -158.8332518 407.90586754 -157.24173898 407.91878718 C-147.334912 407.80896264 -140.08081544 404.96988203 -132.75978088 398.38095093 C-132.09978088 398.38095093 -131.43978088 398.38095093 -130.75978088 398.38095093 C-130.47984787 397.79352615 -130.19991486 397.20610138 -129.91149902 396.60087585 C-128.84537116 394.5459253 -127.65519798 392.75671617 -126.33229065 390.8621521 C-123.14203417 385.7772181 -121.93293885 380.48588544 -120.59962463 374.68173218 C-120.16697548 372.87748528 -120.16697548 372.87748528 -119.72558594 371.03678894 C-118.89944438 367.58471329 -118.09376198 364.1281279 -117.2919693 360.67032623 C-116.74118861 358.30097042 -116.18542866 355.93283104 -115.62825012 353.56497192 C-112.74130731 341.29566653 -109.89423214 329.01728678 -107.05514908 316.73683167 C-105.79841086 311.3036239 -104.53870211 305.8711051 -103.27906799 300.43856812 C-102.75826986 298.19238291 -102.23747213 295.9461976 -101.7166748 293.70001221 C-101.32624654 292.01615229 -101.32624654 292.01615229 -100.92793083 290.29827499 C-100.13077165 286.85975098 -99.33391882 283.42115609 -98.53713989 279.98254395 C-93.23157635 257.0878445 -87.90004373 234.19921849 -82.5638504 211.31164169 C-80.57926675 202.79949721 -78.59499184 194.28728075 -76.61068344 185.7750721 C-76.11135371 183.63310425 -75.61200731 181.49114029 -75.1126442 179.34918022 C-71.40070501 163.4270826 -67.69318698 147.50396002 -63.98812294 131.58026123 C-62.35015998 124.54114901 -60.711566 117.50218366 -59.07297039 110.46321869 C-57.77167077 104.87291212 -56.4707884 99.28250919 -55.17094421 93.69186401 C-54.67656819 91.56576098 -54.18217353 89.43966229 -53.6877594 87.31356812 C-53.44833398 86.28398232 -53.20890856 85.25439651 -52.96222782 84.19361115 C-51.16599254 76.47341575 -49.35947487 68.75565945 -47.54827023 61.03896332 C-46.41231513 56.19252083 -45.29124448 51.34310577 -44.1893568 46.48880577 C-43.71757193 44.41659322 -43.24001333 42.34581412 -42.75991821 40.2755127 C-42.20603794 37.8840017 -41.66182225 35.49021607 -41.13061523 33.09356689 C-38.26468271 20.8718561 -32.89218725 12.45158816 -22.78321838 5.02938843 C-15.52020568 1.06945127 -8.17384042 -0.06450722 0 0 Z " fill="#67B92E" transform="translate(883.7597808837891,488.6190490722656)"/>
<path d="M0 0 C0.66 0.33 1.32 0.66 2 1 C-41.14974943 35.45354273 -89.9628046 63.96122179 -138 91 C-139.67594238 91.94721924 -139.67594238 91.94721924 -141.38574219 92.91357422 C-156.54796258 101.47403062 -171.8730034 109.65287425 -187.3671875 117.58984375 C-191.93330499 119.92935351 -196.47457875 122.30688472 -200.99462891 124.73388672 C-227.04236791 138.68611364 -253.99879507 151.02257028 -281 163 C-281.70862183 163.31477295 -282.41724365 163.6295459 -283.14733887 163.95385742 C-336.39066588 187.58225129 -390.85427635 208.27186117 -446 227 C-446.85237244 227.2900592 -447.70474487 227.58011841 -448.58294678 227.87896729 C-537.65752535 258.14814686 -629.5719903 280.63346474 -791.3125 305.875 C-792.4958493 306.02052307 -793.67919861 306.16604614 -794.89840698 306.315979 C-809.91140669 308.14944564 -824.92922007 309.72550339 -840 311 C-839.45770658 305.12737855 -838.5700402 299.48490791 -837.1875 293.75390625 C-837.01371826 293.0167186 -836.83993652 292.27953094 -836.66088867 291.52000427 C-836.29695095 289.98091908 -835.93047464 288.44243207 -835.56152344 286.90454102 C-834.99584945 284.5451886 -834.4387291 282.18393416 -833.8828125 279.82226562 C-833.52653513 278.32019537 -833.16978171 276.81823793 -832.8125 275.31640625 C-832.64580811 274.61125381 -832.47911621 273.90610138 -832.30737305 273.17958069 C-831.11627978 268.23255956 -831.11627978 268.23255956 -830 266 C-828.07365723 265.89510254 -828.07365723 265.89510254 -826.10839844 265.78808594 C-727.15717425 260.34719829 -629.46242009 246.90343332 -533 224 C-532.00824768 223.76452454 -531.01649536 223.52904907 -529.99468994 223.28643799 C-438.76661452 201.55311039 -349.34438217 172.3402947 -100.64257812 59.47949219 C-97.651346 57.80480014 -94.64677614 56.15556914 -91.640625 54.5078125 C-75.55762881 45.67162655 -59.72261566 36.46114459 -44 27 C-42.44394043 26.06510742 -42.44394043 26.06510742 -40.85644531 25.11132812 C-30.20177833 18.70021046 -19.60817581 12.21676696 -9.22412109 5.3737793 C-2.52505312 0.96980963 -2.52505312 0.96980963 0 0 Z " fill="#0093DD" transform="translate(1483,860)"/>
<path d="M0 0 C2 1 2 1 3 3 C2.32122803 3.32162109 1.64245605 3.64324219 0.94311523 3.97460938 C-2.22718686 5.47939602 -5.39524452 6.98881109 -8.5625 8.5 C-9.69953369 9.04229248 -10.83656738 9.58458496 -12.00805664 10.14331055 C-19.61184416 13.79263168 -27.05965008 17.62219244 -34.40234375 21.76953125 C-35.68818359 22.37861328 -35.68818359 22.37861328 -37 23 C-37.66 22.67 -38.32 22.34 -39 22 C-29.4461027 16.27273 -19.8099781 10.70444927 -10.0625 5.3125 C-9.09747559 4.77141602 -8.13245117 4.23033203 -7.13818359 3.67285156 C-6.23793457 3.17881836 -5.33768555 2.68478516 -4.41015625 2.17578125 C-3.60715088 1.73145752 -2.80414551 1.28713379 -1.97680664 0.8293457 C-1.32446045 0.55566162 -0.67211426 0.28197754 0 0 Z " fill="#DB8926" transform="translate(404,279)"/>
<path d="M0 0 C0.66 0.66 1.32 1.32 2 2 C-1.11812941 3.70043413 -4.24550253 5.38309295 -7.375 7.0625 C-8.70917969 7.79049805 -8.70917969 7.79049805 -10.0703125 8.53320312 C-10.92109375 8.98759766 -11.771875 9.44199219 -12.6484375 9.91015625 C-13.43395996 10.33433838 -14.21948242 10.75852051 -15.02880859 11.19555664 C-16.00454834 11.5937561 -16.00454834 11.5937561 -17 12 C-17.66 11.67 -18.32 11.34 -19 11 C-16.2089613 9.35309997 -13.41706312 7.70766259 -10.625 6.0625 C-9.8309375 5.59392578 -9.036875 5.12535156 -8.21875 4.64257812 C-7.45820313 4.19462891 -6.69765625 3.74667969 -5.9140625 3.28515625 C-5.2123291 2.87144775 -4.5105957 2.45773926 -3.78759766 2.03149414 C-2.54669684 1.31545946 -1.28141812 0.64070906 0 0 Z " fill="#5BB246" transform="translate(384,290)"/>
</svg>
